<svg width="358" height="215" viewBox="0 0 358 215" fill="none" xmlns="http://www.w3.org/2000/svg">
<g clip-path="url(#clip0_325_20502)">
<rect width="358" height="215" rx="8" fill="#A29696"/>
<path d="M24.64 37.74C25.82 38.36 26.6 39.5 26.6 41C26.6 43.32 24.72 45 22.4 45H16.4V31H21.96C24.22 31 26.06 32.64 26.06 34.88C26.06 36.1 25.52 37.1 24.64 37.74ZM21.96 33.16H18.7V36.84H21.96C22.98 36.84 23.76 36.04 23.76 35C23.76 33.96 22.98 33.16 21.96 33.16ZM22.4 42.84C23.48 42.84 24.3 41.98 24.3 40.88C24.3 39.78 23.48 38.92 22.4 38.92H18.7V42.84H22.4ZM35.3023 35H37.4623V45H35.3023V43.72C34.6423 44.76 33.5623 45.26 32.2023 45.26C29.9623 45.26 28.3623 43.74 28.3623 41.14V35H30.5223V40.92C30.5223 42.44 31.4023 43.24 32.7623 43.24C34.1823 43.24 35.3023 42.4 35.3023 40.36V35ZM46.6281 35H48.9281L45.0881 45.32C44.1481 47.86 42.5081 49.14 40.2081 49V46.98C41.6081 47.06 42.3681 46.34 42.8681 45.02L42.9681 44.82L38.7281 35H41.0881L44.0681 42.26L46.6281 35ZM51.3819 42.6L49.9819 47.8H48.1819L48.9819 42.6H51.3819ZM66.4348 35H68.5548V44.54C68.5548 47.76 66.0348 49.26 63.4148 49.26C61.2148 49.26 59.5148 48.44 58.6748 46.84L60.5348 45.76C60.9748 46.62 61.7148 47.3 63.4548 47.3C65.3148 47.3 66.4348 46.28 66.4348 44.54V43.32C65.6748 44.4 64.4948 45.06 62.9548 45.06C60.1348 45.06 57.9148 42.76 57.9148 39.9C57.9148 37.04 60.1348 34.74 62.9548 34.74C64.4948 34.74 65.6748 35.4 66.4348 36.48V35ZM63.2548 43.04C65.0748 43.04 66.4348 41.7 66.4348 39.9C66.4348 38.1 65.0748 36.76 63.2548 36.76C61.4348 36.76 60.0748 38.1 60.0748 39.9C60.0748 41.7 61.4348 43.04 63.2548 43.04ZM72.0525 33.5C71.2925 33.5 70.6725 32.86 70.6725 32.12C70.6725 31.36 71.2925 30.74 72.0525 30.74C72.8125 30.74 73.4325 31.36 73.4325 32.12C73.4325 32.86 72.8125 33.5 72.0525 33.5ZM70.9725 45V35H73.1325V45H70.9725ZM80.7805 32.82C79.2605 32.68 78.4205 33.26 78.4205 34.8V35H80.7805V37.08H78.4205V45H76.2605V37.08H74.7405V35H76.2605V34.8C76.2605 32.1 77.7805 30.54 80.7805 30.74V32.82ZM87.8759 37.08H85.3959V41.88C85.3959 43.16 86.2359 43.14 87.8759 43.06V45C84.5559 45.4 83.2359 44.48 83.2359 41.88V37.08H81.3959V35H83.2359V32.84L85.3959 32.2V35H87.8759V37.08ZM99.4527 45.26C96.5327 45.26 94.1727 42.96 94.1727 40C94.1727 37.02 96.5327 34.74 99.4527 34.74C102.393 34.74 104.733 37.02 104.733 40C104.733 42.96 102.393 45.26 99.4527 45.26ZM99.4527 43.16C101.213 43.16 102.573 41.82 102.573 40C102.573 38.18 101.213 36.84 99.4527 36.84C97.6927 36.84 96.3327 38.18 96.3327 40C96.3327 41.82 97.6927 43.16 99.4527 43.16ZM108.746 36.68C109.346 35.32 110.566 34.82 111.826 34.82V37.16C110.406 37.06 108.746 37.72 108.746 39.96V45H106.586V35H108.746V36.68ZM120.382 36.68C120.982 35.32 122.202 34.82 123.462 34.82V37.16C122.042 37.06 120.382 37.72 120.382 39.96V45H118.222V35H120.382V36.68ZM126.189 40.92C126.529 42.48 127.789 43.28 129.389 43.28C130.589 43.28 131.489 42.74 131.969 42.04L133.749 43.08C132.829 44.44 131.329 45.26 129.369 45.26C126.069 45.26 123.929 43 123.929 40C123.929 37.04 126.069 34.74 129.209 34.74C132.189 34.74 134.229 37.14 134.229 40.02C134.229 40.32 134.189 40.64 134.149 40.92H126.189ZM126.169 39.16H132.049C131.749 37.44 130.489 36.7 129.189 36.7C127.569 36.7 126.469 37.66 126.169 39.16ZM137.579 37.76C137.579 39.58 142.959 38.48 142.959 42.18C142.959 44.18 141.219 45.26 139.059 45.26C137.059 45.26 135.619 44.36 134.979 42.92L136.839 41.84C137.159 42.74 137.959 43.28 139.059 43.28C140.019 43.28 140.759 42.96 140.759 42.16C140.759 40.38 135.379 41.38 135.379 37.8C135.379 35.92 136.999 34.74 139.039 34.74C140.679 34.74 142.039 35.5 142.739 36.82L140.919 37.84C140.559 37.06 139.859 36.7 139.039 36.7C138.259 36.7 137.579 37.04 137.579 37.76ZM146.204 40.92C146.544 42.48 147.804 43.28 149.404 43.28C150.604 43.28 151.504 42.74 151.984 42.04L153.764 43.08C152.844 44.44 151.344 45.26 149.384 45.26C146.084 45.26 143.944 43 143.944 40C143.944 37.04 146.084 34.74 149.224 34.74C152.204 34.74 154.244 37.14 154.244 40.02C154.244 40.32 154.204 40.64 154.164 40.92H146.204ZM146.184 39.16H152.064C151.764 37.44 150.504 36.7 149.204 36.7C147.584 36.7 146.484 37.66 146.184 39.16ZM156.044 45V30.4H158.204V45H156.044ZM160.612 45V30.4H162.772V45H160.612ZM21.84 61.08H19.36V65.88C19.36 67.16 20.2 67.14 21.84 67.06V69C18.52 69.4 17.2 68.48 17.2 65.88V61.08H15.36V59H17.2V56.84L19.36 56.2V59H21.84V61.08ZM24.7791 57.5C24.0191 57.5 23.3991 56.86 23.3991 56.12C23.3991 55.36 24.0191 54.74 24.7791 54.74C25.5391 54.74 26.1591 55.36 26.1591 56.12C26.1591 56.86 25.5391 57.5 24.7791 57.5ZM23.6991 69V59H25.8591V69H23.6991ZM32.987 69.26C29.967 69.26 27.707 66.96 27.707 64C27.707 61.02 29.967 58.74 32.987 58.74C34.947 58.74 36.647 59.76 37.447 61.32L35.587 62.4C35.147 61.46 34.167 60.86 32.967 60.86C31.207 60.86 29.867 62.2 29.867 64C29.867 65.8 31.207 67.14 32.967 67.14C34.167 67.14 35.147 66.52 35.627 65.6L37.487 66.66C36.647 68.24 34.947 69.26 32.987 69.26ZM47.7883 69H45.2083L41.1083 64.38V69H38.9483V55H41.1083V63.42L44.9883 59H47.6283L43.2283 63.9L47.7883 69ZM50.0405 64.92C50.3805 66.48 51.6405 67.28 53.2405 67.28C54.4405 67.28 55.3405 66.74 55.8205 66.04L57.6005 67.08C56.6805 68.44 55.1805 69.26 53.2205 69.26C49.9205 69.26 47.7805 67 47.7805 64C47.7805 61.04 49.9205 58.74 53.0605 58.74C56.0405 58.74 58.0805 61.14 58.0805 64.02C58.0805 64.32 58.0405 64.64 58.0005 64.92H50.0405ZM50.0205 63.16H55.9005C55.6005 61.44 54.3405 60.7 53.0405 60.7C51.4205 60.7 50.3205 61.66 50.0205 63.16ZM65.1486 61.08H62.6686V65.88C62.6686 67.16 63.5086 67.14 65.1486 67.06V69C61.8286 69.4 60.5086 68.48 60.5086 65.88V61.08H58.6686V59H60.5086V56.84L62.6686 56.2V59H65.1486V61.08ZM68.5766 61.76C68.5766 63.58 73.9566 62.48 73.9566 66.18C73.9566 68.18 72.2166 69.26 70.0566 69.26C68.0566 69.26 66.6166 68.36 65.9766 66.92L67.8366 65.84C68.1566 66.74 68.9566 67.28 70.0566 67.28C71.0166 67.28 71.7566 66.96 71.7566 66.16C71.7566 64.38 66.3766 65.38 66.3766 61.8C66.3766 59.92 67.9966 58.74 70.0366 58.74C71.6766 58.74 73.0366 59.5 73.7366 60.82L71.9166 61.84C71.5566 61.06 70.8566 60.7 70.0366 60.7C69.2566 60.7 68.5766 61.04 68.5766 61.76ZM88.5753 59H90.7353V69H88.5753V67.56C87.8153 68.62 86.6353 69.26 85.0753 69.26C82.3553 69.26 80.0953 66.96 80.0953 64C80.0953 61.02 82.3553 58.74 85.0753 58.74C86.6353 58.74 87.8153 59.38 88.5753 60.42V59ZM85.4153 67.2C87.2153 67.2 88.5753 65.86 88.5753 64C88.5753 62.14 87.2153 60.8 85.4153 60.8C83.6153 60.8 82.2553 62.14 82.2553 64C82.2553 65.86 83.6153 67.2 85.4153 67.2ZM98.413 58.74C100.653 58.74 102.253 60.26 102.253 62.86V69H100.093V63.08C100.093 61.56 99.213 60.76 97.853 60.76C96.433 60.76 95.313 61.6 95.313 63.64V69H93.153V59H95.313V60.28C95.973 59.24 97.053 58.74 98.413 58.74ZM112.399 55H114.559V69H112.399V67.56C111.639 68.62 110.459 69.26 108.899 69.26C106.179 69.26 103.919 66.96 103.919 64C103.919 61.02 106.179 58.74 108.899 58.74C110.459 58.74 111.639 59.38 112.399 60.42V55ZM109.239 67.2C111.039 67.2 112.399 65.86 112.399 64C112.399 62.14 111.039 60.8 109.239 60.8C107.439 60.8 106.079 62.14 106.079 64C106.079 65.86 107.439 67.2 109.239 67.2ZM132.796 58.74C135.056 58.74 136.576 60.3 136.576 62.8V69H134.416V62.94C134.416 61.54 133.656 60.76 132.476 60.76C131.196 60.76 130.296 61.58 130.296 63.4V69H128.136V62.94C128.136 61.54 127.436 60.76 126.256 60.76C125.036 60.76 124.036 61.58 124.036 63.4V69H121.876V59H124.036V60.2C124.676 59.22 125.656 58.74 126.896 58.74C128.196 58.74 129.156 59.32 129.736 60.32C130.396 59.28 131.456 58.74 132.796 58.74ZM146.708 59H148.868V69H146.708V67.56C145.948 68.62 144.768 69.26 143.208 69.26C140.488 69.26 138.228 66.96 138.228 64C138.228 61.02 140.488 58.74 143.208 58.74C144.768 58.74 145.948 59.38 146.708 60.42V59ZM143.548 67.2C145.348 67.2 146.708 65.86 146.708 64C146.708 62.14 145.348 60.8 143.548 60.8C141.748 60.8 140.388 62.14 140.388 64C140.388 65.86 141.748 67.2 143.548 67.2ZM156.546 58.74C158.786 58.74 160.386 60.26 160.386 62.86V69H158.226V63.08C158.226 61.56 157.346 60.76 155.986 60.76C154.566 60.76 153.446 61.6 153.446 63.64V69H151.286V59H153.446V60.28C154.106 59.24 155.186 58.74 156.546 58.74ZM169.156 59H171.456L167.616 69.32C166.676 71.86 165.036 73.14 162.736 73V70.98C164.136 71.06 164.896 70.34 165.396 69.02L165.496 68.82L161.256 59H163.616L166.596 66.26L169.156 59ZM188.527 58.74C190.787 58.74 192.307 60.3 192.307 62.8V69H190.147V62.94C190.147 61.54 189.387 60.76 188.207 60.76C186.927 60.76 186.027 61.58 186.027 63.4V69H183.867V62.94C183.867 61.54 183.167 60.76 181.987 60.76C180.767 60.76 179.767 61.58 179.767 63.4V69H177.607V59H179.767V60.2C180.407 59.22 181.387 58.74 182.627 58.74C183.927 58.74 184.887 59.32 185.467 60.32C186.127 59.28 187.187 58.74 188.527 58.74ZM199.239 69.26C196.319 69.26 193.959 66.96 193.959 64C193.959 61.02 196.319 58.74 199.239 58.74C202.179 58.74 204.519 61.02 204.519 64C204.519 66.96 202.179 69.26 199.239 69.26ZM199.239 67.16C200.999 67.16 202.359 65.82 202.359 64C202.359 62.18 200.999 60.84 199.239 60.84C197.479 60.84 196.119 62.18 196.119 64C196.119 65.82 197.479 67.16 199.239 67.16ZM208.532 60.68C209.132 59.32 210.352 58.82 211.612 58.82V61.16C210.192 61.06 208.532 61.72 208.532 63.96V69H206.372V59H208.532V60.68ZM214.339 64.92C214.679 66.48 215.939 67.28 217.539 67.28C218.739 67.28 219.639 66.74 220.119 66.04L221.899 67.08C220.979 68.44 219.479 69.26 217.519 69.26C214.219 69.26 212.079 67 212.079 64C212.079 61.04 214.219 58.74 217.359 58.74C220.339 58.74 222.379 61.14 222.379 64.02C222.379 64.32 222.339 64.64 222.299 64.92H214.339ZM214.319 63.16H220.199C219.899 61.44 218.639 60.7 217.339 60.7C215.719 60.7 214.619 61.66 214.319 63.16ZM20.98 93.26C18.06 93.26 15.7 90.96 15.7 88C15.7 85.02 18.06 82.74 20.98 82.74C23.92 82.74 26.26 85.02 26.26 88C26.26 90.96 23.92 93.26 20.98 93.26ZM20.98 91.16C22.74 91.16 24.1 89.82 24.1 88C24.1 86.18 22.74 84.84 20.98 84.84C19.22 84.84 17.86 86.18 17.86 88C17.86 89.82 19.22 91.16 20.98 91.16ZM33.3731 82.74C35.6131 82.74 37.2131 84.26 37.2131 86.86V93H35.0531V87.08C35.0531 85.56 34.1731 84.76 32.8131 84.76C31.3931 84.76 30.2731 85.6 30.2731 87.64V93H28.1131V83H30.2731V84.28C30.9331 83.24 32.0131 82.74 33.3731 82.74ZM53.5789 79V81.2H49.6389V93H47.3389V81.2H43.3789V79H53.5789ZM56.1197 81.5C55.3597 81.5 54.7397 80.86 54.7397 80.12C54.7397 79.36 55.3597 78.74 56.1197 78.74C56.8797 78.74 57.4997 79.36 57.4997 80.12C57.4997 80.86 56.8797 81.5 56.1197 81.5ZM55.0397 93V83H57.1997V93H55.0397ZM64.3277 93.26C61.3077 93.26 59.0477 90.96 59.0477 88C59.0477 85.02 61.3077 82.74 64.3277 82.74C66.2877 82.74 67.9877 83.76 68.7877 85.32L66.9277 86.4C66.4877 85.46 65.5077 84.86 64.3077 84.86C62.5477 84.86 61.2077 86.2 61.2077 88C61.2077 89.8 62.5477 91.14 64.3077 91.14C65.5077 91.14 66.4877 90.52 66.9677 89.6L68.8277 90.66C67.9877 92.24 66.2877 93.26 64.3277 93.26ZM79.1289 93H76.5489L72.4489 88.38V93H70.2889V79H72.4489V87.42L76.3289 83H78.9689L74.5689 87.9L79.1289 93ZM81.3811 88.92C81.7211 90.48 82.9811 91.28 84.5811 91.28C85.7811 91.28 86.6811 90.74 87.1611 90.04L88.9411 91.08C88.0211 92.44 86.5211 93.26 84.5611 93.26C81.2611 93.26 79.1211 91 79.1211 88C79.1211 85.04 81.2611 82.74 84.4011 82.74C87.3811 82.74 89.4211 85.14 89.4211 88.02C89.4211 88.32 89.3811 88.64 89.3411 88.92H81.3811ZM81.3611 87.16H87.2411C86.9411 85.44 85.6811 84.7 84.3811 84.7C82.7611 84.7 81.6611 85.66 81.3611 87.16ZM96.4892 85.08H94.0092V89.88C94.0092 91.16 94.8492 91.14 96.4892 91.06V93C93.1692 93.4 91.8492 92.48 91.8492 89.88V85.08H90.0092V83H91.8492V80.84L94.0092 80.2V83H96.4892V85.08ZM98.3906 87.96V85.88H105.791V87.96H98.3906ZM109.426 81.5C108.666 81.5 108.046 80.86 108.046 80.12C108.046 79.36 108.666 78.74 109.426 78.74C110.186 78.74 110.806 79.36 110.806 80.12C110.806 80.86 110.186 81.5 109.426 81.5ZM108.346 93V83H110.506V93H108.346ZM118.494 85.08H116.014V89.88C116.014 91.16 116.854 91.14 118.494 91.06V93C115.174 93.4 113.854 92.48 113.854 89.88V85.08H112.014V83H113.854V80.84L116.014 80.2V83H118.494V85.08Z" fill="#3E3737"/>
<rect x="228" width="130" height="118" fill="#B0ACAC"/>
<circle cx="21.5" cy="186.5" r="10.5" fill="#E9E9E9"/>
<path d="M22.8865 180.5C21.9922 180.5 21.5528 181.65 22.1653 182.31C22.4715 182.64 22.9278 182.703 23.2799 182.546C23.6319 182.389 23.8959 182.02 23.8959 181.565C23.8959 180.991 23.453 180.5 22.8865 180.5ZM22.8865 181.044C23.1327 181.044 23.3489 181.263 23.3488 181.565C23.3488 181.817 23.2162 181.978 23.0561 182.049C22.8961 182.121 22.7246 182.111 22.5674 181.941C22.2531 181.602 22.4698 181.044 22.8865 181.044Z" fill="#534A4A"/>
<path d="M23.3609 183.021C23.3563 183.021 23.3517 183.022 23.3471 183.022C21.3152 183.202 19.2833 183.383 17.2515 183.563C17.2154 183.566 17.1803 183.575 17.148 183.592C17.1158 183.608 17.0872 183.631 17.0638 183.658C17.0404 183.686 17.0227 183.718 17.0118 183.752C17.0009 183.786 16.9969 183.822 17.0001 183.858C17.0033 183.894 17.0136 183.929 17.0305 183.961C17.0473 183.993 17.0704 184.021 17.0983 184.044C17.1262 184.067 17.1584 184.084 17.193 184.095C17.2276 184.105 17.264 184.109 17.3 184.105C18.6597 183.984 20.0195 183.864 21.3792 183.743C21.2193 184.477 20.8993 184.828 20.3989 185.249C20.3679 185.275 20.3432 185.308 20.3265 185.345C20.3097 185.381 20.3014 185.421 20.302 185.461C20.3027 185.502 20.3123 185.541 20.3303 185.578C20.3482 185.614 20.374 185.646 20.4058 185.671C20.9594 186.106 21.5128 186.542 22.0663 186.977C22.0967 187.001 22.1319 187.019 22.1695 187.028C22.2071 187.037 22.2463 187.039 22.2844 187.032C22.3226 187.025 22.3588 187.01 22.3908 186.988C22.4227 186.967 22.4497 186.938 22.4698 186.905C23.0958 185.884 23.3727 184.919 24.4611 184.29C24.7712 184.567 25.0578 184.887 25.3607 185.239L23.8035 187.071C23.7567 187.127 23.7337 187.198 23.7397 187.27C23.7458 187.342 23.7803 187.409 23.8357 187.455C23.8911 187.502 23.9629 187.525 24.0352 187.519C24.1075 187.513 24.1745 187.478 24.2214 187.423L25.9344 185.406C25.9762 185.357 25.9991 185.295 25.999 185.23C25.9989 185.166 25.9758 185.103 25.9338 185.054C25.2208 184.221 24.5661 183.452 23.4685 183.039C23.4342 183.026 23.3976 183.02 23.3609 183.021Z" fill="#534A4A"/>
<path d="M20.4539 186.018C20.4142 186.02 20.3753 186.031 20.3401 186.049C20.305 186.068 20.2742 186.094 20.2502 186.125L18.8605 187.892C18.8376 187.92 18.8206 187.952 18.8103 187.987C18.8001 188.022 18.797 188.058 18.801 188.094C18.8051 188.13 18.8163 188.165 18.834 188.196C18.8517 188.228 18.8756 188.255 18.9042 188.278C18.9327 188.3 18.9655 188.316 19.0005 188.326C19.0356 188.336 19.0722 188.338 19.1082 188.333C19.1442 188.329 19.1789 188.317 19.2104 188.299C19.2418 188.281 19.2692 188.256 19.2911 188.228L20.6811 186.461C20.7143 186.42 20.7349 186.371 20.7404 186.318C20.7458 186.266 20.736 186.213 20.7119 186.166C20.6879 186.119 20.6507 186.08 20.6049 186.054C20.5591 186.028 20.5067 186.015 20.4539 186.018Z" fill="#534A4A"/>
<path d="M21.3518 186.863C21.312 186.866 21.2732 186.877 21.238 186.895C21.2029 186.914 21.1723 186.94 21.1483 186.972L17.4028 191.79C17.3799 191.818 17.3628 191.85 17.3527 191.885C17.3425 191.92 17.3394 191.956 17.3436 191.992C17.3478 192.028 17.3592 192.063 17.3771 192.095C17.395 192.126 17.4191 192.154 17.4479 192.176C17.4767 192.198 17.5097 192.215 17.5449 192.224C17.5801 192.233 17.6168 192.236 17.6529 192.231C17.689 192.226 17.7237 192.214 17.755 192.195C17.7864 192.176 17.8137 192.152 17.8353 192.123L21.5811 187.305C21.6125 187.266 21.6323 187.218 21.6385 187.169C21.6446 187.119 21.6368 187.068 21.6159 187.023C21.5949 186.977 21.5617 186.938 21.5199 186.91C21.4781 186.882 21.4294 186.866 21.379 186.863C21.3699 186.863 21.3609 186.863 21.3518 186.863Z" fill="#534A4A"/>
<path d="M20.6117 190.516C19.775 190.516 19.3619 191.589 19.9353 192.204C20.222 192.511 20.6505 192.57 20.9803 192.423C21.3102 192.277 21.5577 191.932 21.5577 191.509C21.5577 190.974 21.1424 190.516 20.6117 190.516Z" fill="#534A4A"/>
<path d="M44.523 183L44.0085 181.519H40.8795L40.365 183H39.0525L41.7195 175.65H43.1685L45.825 183H44.523ZM41.2785 180.385H43.6095L42.444 177.068L41.2785 180.385ZM49.9663 177.75H51.1003V183H49.9663V182.328C49.6198 182.874 49.0528 183.137 48.3388 183.137C47.1628 183.137 46.3228 182.338 46.3228 180.973V177.75H47.4568V180.858C47.4568 181.656 47.9188 182.076 48.6328 182.076C49.3783 182.076 49.9663 181.635 49.9663 180.564V177.75ZM55.3034 178.842H54.0014V181.362C54.0014 182.034 54.4424 182.023 55.3034 181.981V183C53.5604 183.21 52.8674 182.727 52.8674 181.362V178.842H51.9014V177.75H52.8674V176.616L54.0014 176.28V177.75H55.3034V178.842ZM59.0409 177.613C60.2169 177.613 61.0569 178.411 61.0569 179.776V183H59.9229V179.892C59.9229 179.094 59.4609 178.674 58.7469 178.674C58.0014 178.674 57.4134 179.115 57.4134 180.186V183H56.2794V175.65H57.4134V178.422C57.7599 177.876 58.3269 177.613 59.0409 177.613ZM64.7034 183.137C63.1704 183.137 61.9314 181.929 61.9314 180.375C61.9314 178.81 63.1704 177.613 64.7034 177.613C66.2469 177.613 67.4754 178.81 67.4754 180.375C67.4754 181.929 66.2469 183.137 64.7034 183.137ZM64.7034 182.034C65.6274 182.034 66.3414 181.33 66.3414 180.375C66.3414 179.419 65.6274 178.716 64.7034 178.716C63.7794 178.716 63.0654 179.419 63.0654 180.375C63.0654 181.33 63.7794 182.034 64.7034 182.034ZM69.5823 178.632C69.8973 177.918 70.5378 177.655 71.1993 177.655V178.884C70.4538 178.831 69.5823 179.178 69.5823 180.354V183H68.4483V177.75H69.5823V178.632ZM72.5517 176.962C72.1527 176.962 71.8272 176.626 71.8272 176.238C71.8272 175.839 72.1527 175.513 72.5517 175.513C72.9507 175.513 73.2762 175.839 73.2762 176.238C73.2762 176.626 72.9507 176.962 72.5517 176.962ZM71.9847 183V177.75H73.1187V183H71.9847ZM75.3706 179.199C75.3706 180.154 78.1951 179.577 78.1951 181.519C78.1951 182.569 77.2816 183.137 76.1476 183.137C75.0976 183.137 74.3416 182.664 74.0056 181.908L74.9821 181.341C75.1501 181.813 75.5701 182.097 76.1476 182.097C76.6516 182.097 77.0401 181.929 77.0401 181.509C77.0401 180.574 74.2156 181.099 74.2156 179.22C74.2156 178.233 75.0661 177.613 76.1371 177.613C76.9981 177.613 77.7121 178.012 78.0796 178.705L77.1241 179.241C76.9351 178.831 76.5676 178.642 76.1371 178.642C75.7276 178.642 75.3706 178.821 75.3706 179.199ZM79.8987 180.858C80.0772 181.677 80.7387 182.097 81.5787 182.097C82.2087 182.097 82.6812 181.813 82.9332 181.446L83.8677 181.992C83.3847 182.706 82.5972 183.137 81.5682 183.137C79.8357 183.137 78.7122 181.95 78.7122 180.375C78.7122 178.821 79.8357 177.613 81.4842 177.613C83.0487 177.613 84.1197 178.873 84.1197 180.385C84.1197 180.543 84.0987 180.711 84.0777 180.858H79.8987ZM79.8882 179.934H82.9752C82.8177 179.031 82.1562 178.642 81.4737 178.642C80.6232 178.642 80.0457 179.146 79.8882 179.934ZM89.1922 175.65H90.3262V183H89.1922V182.244C88.7932 182.8 88.1737 183.137 87.3547 183.137C85.9267 183.137 84.7402 181.929 84.7402 180.375C84.7402 178.81 85.9267 177.613 87.3547 177.613C88.1737 177.613 88.7932 177.949 89.1922 178.495V175.65ZM87.5332 182.055C88.4782 182.055 89.1922 181.351 89.1922 180.375C89.1922 179.398 88.4782 178.695 87.5332 178.695C86.5882 178.695 85.8742 179.398 85.8742 180.375C85.8742 181.351 86.5882 182.055 87.5332 182.055ZM97.1395 177.613C98.5675 177.613 99.754 178.81 99.754 180.375C99.754 181.929 98.5675 183.137 97.1395 183.137C96.3205 183.137 95.701 182.8 95.302 182.244V183H94.168V175.65H95.302V178.495C95.701 177.949 96.3205 177.613 97.1395 177.613ZM96.961 182.055C97.906 182.055 98.62 181.351 98.62 180.375C98.62 179.398 97.906 178.695 96.961 178.695C96.016 178.695 95.302 179.398 95.302 180.375C95.302 181.351 96.016 182.055 96.961 182.055ZM104.063 177.75H105.27L103.254 183.168C102.761 184.502 101.9 185.174 100.692 185.1V184.04C101.427 184.082 101.826 183.704 102.089 183.011L102.141 182.905L99.9152 177.75H101.154L102.719 181.561L104.063 177.75ZM42.591 192.842H41.289V195.362C41.289 196.034 41.73 196.023 42.591 195.981V197C40.848 197.21 40.155 196.727 40.155 195.362V192.842H39.189V191.75H40.155V190.616L41.289 190.28V191.75H42.591V192.842ZM46.3285 191.613C47.5045 191.613 48.3445 192.411 48.3445 193.776V197H47.2105V193.892C47.2105 193.094 46.7485 192.674 46.0345 192.674C45.289 192.674 44.701 193.115 44.701 194.186V197H43.567V189.65H44.701V192.422C45.0475 191.876 45.6145 191.613 46.3285 191.613ZM50.4055 194.858C50.584 195.677 51.2455 196.097 52.0855 196.097C52.7155 196.097 53.188 195.813 53.44 195.446L54.3745 195.992C53.8915 196.706 53.104 197.137 52.075 197.137C50.3425 197.137 49.219 195.95 49.219 194.375C49.219 192.821 50.3425 191.613 51.991 191.613C53.5555 191.613 54.6265 192.873 54.6265 194.385C54.6265 194.543 54.6055 194.711 54.5845 194.858H50.4055ZM50.395 193.934H53.482C53.3245 193.031 52.663 192.642 51.9805 192.642C51.13 192.642 50.5525 193.146 50.395 193.934ZM62.5229 190.805H59.4254V192.863H62.4179V194.018H59.4254V197H58.2179V189.65H62.5229V190.805ZM66.4874 189.65C68.5139 189.65 70.0049 191.267 70.0049 193.325C70.0049 195.372 68.5139 197 66.4874 197H63.5999V189.65H66.4874ZM66.4874 195.845C67.8839 195.845 68.8394 194.774 68.8394 193.325C68.8394 191.865 67.8839 190.805 66.4874 190.805H64.8074V195.845H66.4874ZM72.2608 195.845H75.2533V197H71.0533V189.65H72.2608V195.845Z" fill="#3E3737"/>
<circle cx="144.5" cy="186.5" r="10.5" fill="#E9E9E9"/>
<path d="M147.233 183.012C146.442 182.946 145.666 182.761 144.93 182.465C144.794 182.405 144.647 182.375 144.499 182.375C144.351 182.375 144.204 182.405 144.068 182.465C143.332 182.761 142.556 182.946 141.765 183.012C141.487 183.039 141.228 183.169 141.04 183.376C140.853 183.584 140.749 183.854 140.749 184.133V185.881C140.749 187.966 141.788 189.44 144.019 190.516C144.169 190.587 144.333 190.623 144.499 190.623C144.665 190.623 144.829 190.587 144.979 190.516C147.229 189.44 148.249 187.966 148.249 185.881V184.133C148.249 183.854 148.145 183.584 147.958 183.376C147.77 183.169 147.511 183.039 147.233 183.012ZM147.499 185.881C147.499 187.67 146.622 188.881 144.653 189.841C144.604 189.863 144.552 189.874 144.499 189.874C144.446 189.874 144.394 189.863 144.345 189.841C142.377 188.888 141.499 187.67 141.499 185.881V184.133C141.499 184.04 141.533 183.95 141.595 183.881C141.658 183.811 141.744 183.768 141.837 183.758C142.703 183.682 143.554 183.478 144.36 183.151C144.449 183.115 144.549 183.115 144.638 183.151C145.444 183.478 146.295 183.682 147.162 183.758C147.254 183.768 147.34 183.811 147.403 183.881C147.465 183.95 147.499 184.04 147.499 184.133V185.881Z" fill="#534A4A"/>
<path d="M145.752 185.123L144.211 186.623L143.618 186.057C143.548 185.987 143.453 185.948 143.354 185.948C143.255 185.948 143.16 185.987 143.089 186.057C143.054 186.092 143.026 186.134 143.007 186.179C142.988 186.225 142.979 186.274 142.979 186.323C142.979 186.373 142.988 186.422 143.007 186.468C143.026 186.513 143.054 186.555 143.089 186.59L143.944 187.43C144.015 187.5 144.11 187.539 144.209 187.539C144.308 187.539 144.403 187.5 144.473 187.43L146.277 185.656C146.348 185.586 146.388 185.49 146.389 185.39C146.39 185.291 146.351 185.195 146.281 185.123C146.211 185.052 146.115 185.012 146.015 185.011C145.915 185.011 145.819 185.05 145.748 185.12L145.752 185.123Z" fill="#534A4A"/>
<path d="M165.182 183.137C163.733 183.137 162.735 182.422 162.346 181.33L163.386 180.721C163.649 181.467 164.216 181.96 165.213 181.96C166.169 181.96 166.578 181.53 166.578 180.994C166.578 180.343 166.001 180.123 164.909 179.787C163.764 179.44 162.651 179.02 162.651 177.634C162.651 176.28 163.775 175.513 165.014 175.513C166.221 175.513 167.114 176.154 167.576 177.13L166.557 177.718C166.295 177.13 165.833 176.689 165.014 176.689C164.31 176.689 163.859 177.046 163.859 177.603C163.859 178.17 164.268 178.411 165.339 178.747C166.557 179.136 167.785 179.514 167.785 180.973C167.785 182.317 166.715 183.137 165.182 183.137ZM169.736 180.858C169.914 181.677 170.576 182.097 171.416 182.097C172.046 182.097 172.518 181.813 172.77 181.446L173.705 181.992C173.222 182.706 172.434 183.137 171.405 183.137C169.673 183.137 168.549 181.95 168.549 180.375C168.549 178.821 169.673 177.613 171.321 177.613C172.886 177.613 173.957 178.873 173.957 180.385C173.957 180.543 173.936 180.711 173.915 180.858H169.736ZM169.725 179.934H172.812C172.655 179.031 171.993 178.642 171.311 178.642C170.46 178.642 169.883 179.146 169.725 179.934ZM177.349 183.137C175.764 183.137 174.577 181.929 174.577 180.375C174.577 178.81 175.764 177.613 177.349 177.613C178.378 177.613 179.271 178.149 179.691 178.968L178.714 179.535C178.483 179.041 177.969 178.726 177.339 178.726C176.415 178.726 175.711 179.43 175.711 180.375C175.711 181.32 176.415 182.023 177.339 182.023C177.969 182.023 178.483 181.698 178.735 181.215L179.712 181.771C179.271 182.601 178.378 183.137 177.349 183.137ZM184.048 177.75H185.182V183H184.048V182.328C183.702 182.874 183.135 183.137 182.421 183.137C181.245 183.137 180.405 182.338 180.405 180.973V177.75H181.539V180.858C181.539 181.656 182.001 182.076 182.715 182.076C183.46 182.076 184.048 181.635 184.048 180.564V177.75ZM187.59 178.632C187.905 177.918 188.545 177.655 189.207 177.655V178.884C188.461 178.831 187.59 179.178 187.59 180.354V183H186.456V177.75H187.59V178.632ZM190.639 180.858C190.817 181.677 191.479 182.097 192.319 182.097C192.949 182.097 193.421 181.813 193.673 181.446L194.608 181.992C194.125 182.706 193.337 183.137 192.308 183.137C190.576 183.137 189.452 181.95 189.452 180.375C189.452 178.821 190.576 177.613 192.224 177.613C193.789 177.613 194.86 178.873 194.86 180.385C194.86 180.543 194.839 180.711 194.818 180.858H190.639ZM190.628 179.934H193.715C193.558 179.031 192.896 178.642 192.214 178.642C191.363 178.642 190.786 179.146 190.628 179.934ZM201.307 178.842H200.005V181.362C200.005 182.034 200.446 182.023 201.307 181.981V183C199.564 183.21 198.871 182.727 198.871 181.362V178.842H197.905V177.75H198.871V176.616L200.005 176.28V177.75H201.307V178.842ZM202.85 176.962C202.451 176.962 202.126 176.626 202.126 176.238C202.126 175.839 202.451 175.513 202.85 175.513C203.249 175.513 203.575 175.839 203.575 176.238C203.575 176.626 203.249 176.962 202.85 176.962ZM202.283 183V177.75H203.417V183H202.283ZM207.159 183.137C205.574 183.137 204.387 181.929 204.387 180.375C204.387 178.81 205.574 177.613 207.159 177.613C208.188 177.613 209.081 178.149 209.501 178.968L208.524 179.535C208.293 179.041 207.779 178.726 207.149 178.726C206.225 178.726 205.521 179.43 205.521 180.375C205.521 181.32 206.225 182.023 207.149 182.023C207.779 182.023 208.293 181.698 208.545 181.215L209.522 181.771C209.081 182.601 208.188 183.137 207.159 183.137ZM214.93 183H213.575L211.423 180.574V183H210.289V175.65H211.423V180.07L213.46 177.75H214.846L212.536 180.322L214.93 183ZM216.112 180.858C216.291 181.677 216.952 182.097 217.792 182.097C218.422 182.097 218.895 181.813 219.147 181.446L220.081 181.992C219.598 182.706 218.811 183.137 217.782 183.137C216.049 183.137 214.926 181.95 214.926 180.375C214.926 178.821 216.049 177.613 217.698 177.613C219.262 177.613 220.333 178.873 220.333 180.385C220.333 180.543 220.312 180.711 220.291 180.858H216.112ZM216.102 179.934H219.189C219.031 179.031 218.37 178.642 217.687 178.642C216.837 178.642 216.259 179.146 216.102 179.934ZM224.044 178.842H222.742V181.362C222.742 182.034 223.183 182.023 224.044 181.981V183C222.301 183.21 221.608 182.727 221.608 181.362V178.842H220.642V177.75H221.608V176.616L222.742 176.28V177.75H224.044V178.842ZM165.633 191.613C167.061 191.613 168.248 192.821 168.248 194.375C168.248 195.939 167.061 197.137 165.633 197.137C164.814 197.137 164.195 196.8 163.796 196.254V199.1H162.662V191.75H163.796V192.506C164.195 191.949 164.814 191.613 165.633 191.613ZM165.455 196.055C166.4 196.055 167.114 195.351 167.114 194.375C167.114 193.398 166.4 192.695 165.455 192.695C164.51 192.695 163.796 193.398 163.796 194.375C163.796 195.351 164.51 196.055 165.455 196.055ZM170.357 192.632C170.672 191.918 171.312 191.655 171.974 191.655V192.884C171.228 192.831 170.357 193.178 170.357 194.354V197H169.223V191.75H170.357V192.632ZM174.991 197.137C173.458 197.137 172.219 195.929 172.219 194.375C172.219 192.81 173.458 191.613 174.991 191.613C176.535 191.613 177.763 192.81 177.763 194.375C177.763 195.929 176.535 197.137 174.991 197.137ZM174.991 196.034C175.915 196.034 176.629 195.33 176.629 194.375C176.629 193.419 175.915 192.716 174.991 192.716C174.067 192.716 173.353 193.419 173.353 194.375C173.353 195.33 174.067 196.034 174.991 196.034ZM181.563 192.842H180.261V195.362C180.261 196.034 180.702 196.023 181.563 195.981V197C179.82 197.21 179.127 196.727 179.127 195.362V192.842H178.161V191.75H179.127V190.616L180.261 190.28V191.75H181.563V192.842ZM183.216 194.858C183.395 195.677 184.056 196.097 184.896 196.097C185.526 196.097 185.999 195.813 186.251 195.446L187.185 195.992C186.702 196.706 185.915 197.137 184.886 197.137C183.153 197.137 182.03 195.95 182.03 194.375C182.03 192.821 183.153 191.613 184.802 191.613C186.366 191.613 187.437 192.873 187.437 194.385C187.437 194.543 187.416 194.711 187.395 194.858H183.216ZM183.206 193.934H186.293C186.135 193.031 185.474 192.642 184.791 192.642C183.941 192.642 183.363 193.146 183.206 193.934ZM190.83 197.137C189.244 197.137 188.058 195.929 188.058 194.375C188.058 192.81 189.244 191.613 190.83 191.613C191.859 191.613 192.751 192.149 193.171 192.968L192.195 193.535C191.964 193.041 191.449 192.726 190.819 192.726C189.895 192.726 189.192 193.43 189.192 194.375C189.192 195.32 189.895 196.023 190.819 196.023C191.449 196.023 191.964 195.698 192.216 195.215L193.192 195.771C192.751 196.601 191.859 197.137 190.83 197.137ZM196.889 192.842H195.587V195.362C195.587 196.034 196.028 196.023 196.889 195.981V197C195.146 197.21 194.453 196.727 194.453 195.362V192.842H193.487V191.75H194.453V190.616L195.587 190.28V191.75H196.889V192.842ZM198.432 190.962C198.033 190.962 197.707 190.626 197.707 190.238C197.707 189.839 198.033 189.513 198.432 189.513C198.831 189.513 199.156 189.839 199.156 190.238C199.156 190.626 198.831 190.962 198.432 190.962ZM197.865 197V191.75H198.999V197H197.865ZM202.741 197.137C201.208 197.137 199.969 195.929 199.969 194.375C199.969 192.81 201.208 191.613 202.741 191.613C204.284 191.613 205.513 192.81 205.513 194.375C205.513 195.929 204.284 197.137 202.741 197.137ZM202.741 196.034C203.665 196.034 204.379 195.33 204.379 194.375C204.379 193.419 203.665 192.716 202.741 192.716C201.817 192.716 201.103 193.419 201.103 194.375C201.103 195.33 201.817 196.034 202.741 196.034ZM209.247 191.613C210.423 191.613 211.263 192.411 211.263 193.776V197H210.129V193.892C210.129 193.094 209.667 192.674 208.953 192.674C208.208 192.674 207.62 193.115 207.62 194.186V197H206.486V191.75H207.62V192.422C207.966 191.876 208.533 191.613 209.247 191.613Z" fill="#3E3737"/>
<circle cx="264.5" cy="186.5" r="10.5" fill="#E9E9E9"/>
<path d="M267.233 183.012C266.442 182.946 265.666 182.761 264.93 182.465C264.794 182.405 264.647 182.375 264.499 182.375C264.351 182.375 264.204 182.405 264.068 182.465C263.332 182.761 262.556 182.946 261.765 183.012C261.487 183.039 261.228 183.169 261.04 183.376C260.853 183.584 260.749 183.854 260.749 184.133V185.881C260.749 187.966 261.788 189.44 264.019 190.516C264.169 190.587 264.333 190.623 264.499 190.623C264.665 190.623 264.829 190.587 264.979 190.516C267.229 189.44 268.249 187.966 268.249 185.881V184.133C268.249 183.854 268.145 183.584 267.958 183.376C267.77 183.169 267.511 183.039 267.233 183.012ZM267.499 185.881C267.499 187.67 266.622 188.881 264.653 189.841C264.604 189.863 264.552 189.874 264.499 189.874C264.446 189.874 264.394 189.863 264.345 189.841C262.377 188.888 261.499 187.67 261.499 185.881V184.133C261.499 184.04 261.533 183.95 261.595 183.881C261.658 183.811 261.744 183.768 261.837 183.758C262.703 183.682 263.554 183.478 264.36 183.151C264.449 183.115 264.549 183.115 264.638 183.151C265.444 183.478 266.295 183.682 267.162 183.758C267.254 183.768 267.34 183.811 267.403 183.881C267.465 183.95 267.499 184.04 267.499 184.133V185.881Z" fill="#534A4A"/>
<path d="M265.752 185.123L264.211 186.623L263.618 186.057C263.548 185.987 263.453 185.948 263.354 185.948C263.255 185.948 263.16 185.987 263.089 186.057C263.054 186.092 263.026 186.134 263.007 186.179C262.988 186.225 262.979 186.274 262.979 186.323C262.979 186.373 262.988 186.422 263.007 186.468C263.026 186.513 263.054 186.555 263.089 186.59L263.944 187.43C264.015 187.5 264.11 187.539 264.209 187.539C264.308 187.539 264.403 187.5 264.473 187.43L266.277 185.656C266.348 185.586 266.388 185.49 266.389 185.39C266.39 185.291 266.351 185.195 266.281 185.123C266.211 185.052 266.115 185.012 266.015 185.011C265.915 185.011 265.819 185.05 265.748 185.12L265.752 185.123Z" fill="#534A4A"/>
<path d="M285.182 183.137C283.733 183.137 282.735 182.422 282.346 181.33L283.386 180.721C283.649 181.467 284.216 181.96 285.213 181.96C286.169 181.96 286.578 181.53 286.578 180.994C286.578 180.343 286.001 180.123 284.909 179.787C283.764 179.44 282.651 179.02 282.651 177.634C282.651 176.28 283.775 175.513 285.014 175.513C286.221 175.513 287.114 176.154 287.576 177.13L286.557 177.718C286.295 177.13 285.833 176.689 285.014 176.689C284.31 176.689 283.859 177.046 283.859 177.603C283.859 178.17 284.268 178.411 285.339 178.747C286.557 179.136 287.785 179.514 287.785 180.973C287.785 182.317 286.715 183.137 285.182 183.137ZM289.736 180.858C289.914 181.677 290.576 182.097 291.416 182.097C292.046 182.097 292.518 181.813 292.77 181.446L293.705 181.992C293.222 182.706 292.434 183.137 291.405 183.137C289.673 183.137 288.549 181.95 288.549 180.375C288.549 178.821 289.673 177.613 291.321 177.613C292.886 177.613 293.957 178.873 293.957 180.385C293.957 180.543 293.936 180.711 293.915 180.858H289.736ZM289.725 179.934H292.812C292.655 179.031 291.993 178.642 291.311 178.642C290.46 178.642 289.883 179.146 289.725 179.934ZM297.349 183.137C295.764 183.137 294.577 181.929 294.577 180.375C294.577 178.81 295.764 177.613 297.349 177.613C298.378 177.613 299.271 178.149 299.691 178.968L298.714 179.535C298.483 179.041 297.969 178.726 297.339 178.726C296.415 178.726 295.711 179.43 295.711 180.375C295.711 181.32 296.415 182.023 297.339 182.023C297.969 182.023 298.483 181.698 298.735 181.215L299.712 181.771C299.271 182.601 298.378 183.137 297.349 183.137ZM304.048 177.75H305.182V183H304.048V182.328C303.702 182.874 303.135 183.137 302.421 183.137C301.245 183.137 300.405 182.338 300.405 180.973V177.75H301.539V180.858C301.539 181.656 302.001 182.076 302.715 182.076C303.46 182.076 304.048 181.635 304.048 180.564V177.75ZM307.59 178.632C307.905 177.918 308.545 177.655 309.207 177.655V178.884C308.461 178.831 307.59 179.178 307.59 180.354V183H306.456V177.75H307.59V178.632ZM310.639 180.858C310.817 181.677 311.479 182.097 312.319 182.097C312.949 182.097 313.421 181.813 313.673 181.446L314.608 181.992C314.125 182.706 313.337 183.137 312.308 183.137C310.576 183.137 309.452 181.95 309.452 180.375C309.452 178.821 310.576 177.613 312.224 177.613C313.789 177.613 314.86 178.873 314.86 180.385C314.86 180.543 314.839 180.711 314.818 180.858H310.639ZM310.628 179.934H313.715C313.558 179.031 312.896 178.642 312.214 178.642C311.363 178.642 310.786 179.146 310.628 179.934ZM285.591 192.842H284.289V195.362C284.289 196.034 284.73 196.023 285.591 195.981V197C283.848 197.21 283.155 196.727 283.155 195.362V192.842H282.189V191.75H283.155V190.616L284.289 190.28V191.75H285.591V192.842ZM287.752 192.632C288.067 191.918 288.708 191.655 289.369 191.655V192.884C288.624 192.831 287.752 193.178 287.752 194.354V197H286.618V191.75H287.752V192.632ZM294.067 191.75H295.201V197H294.067V196.244C293.668 196.8 293.048 197.137 292.229 197.137C290.801 197.137 289.615 195.929 289.615 194.375C289.615 192.81 290.801 191.613 292.229 191.613C293.048 191.613 293.668 191.949 294.067 192.495V191.75ZM292.408 196.055C293.353 196.055 294.067 195.351 294.067 194.375C294.067 193.398 293.353 192.695 292.408 192.695C291.463 192.695 290.749 193.398 290.749 194.375C290.749 195.351 291.463 196.055 292.408 196.055ZM299.231 191.613C300.407 191.613 301.247 192.411 301.247 193.776V197H300.113V193.892C300.113 193.094 299.651 192.674 298.937 192.674C298.192 192.674 297.604 193.115 297.604 194.186V197H296.47V191.75H297.604V192.422C297.95 191.876 298.517 191.613 299.231 191.613ZM303.434 193.199C303.434 194.154 306.259 193.577 306.259 195.519C306.259 196.569 305.345 197.137 304.211 197.137C303.161 197.137 302.405 196.664 302.069 195.908L303.046 195.341C303.214 195.813 303.634 196.097 304.211 196.097C304.715 196.097 305.104 195.929 305.104 195.509C305.104 194.574 302.279 195.099 302.279 193.22C302.279 192.233 303.13 191.613 304.201 191.613C305.062 191.613 305.776 192.012 306.143 192.705L305.188 193.241C304.999 192.831 304.631 192.642 304.201 192.642C303.791 192.642 303.434 192.821 303.434 193.199ZM311.228 191.75H312.362V197H311.228V196.244C310.829 196.8 310.209 197.137 309.39 197.137C307.962 197.137 306.776 195.929 306.776 194.375C306.776 192.81 307.962 191.613 309.39 191.613C310.209 191.613 310.829 191.949 311.228 192.495V191.75ZM309.569 196.055C310.514 196.055 311.228 195.351 311.228 194.375C311.228 193.398 310.514 192.695 309.569 192.695C308.624 192.695 307.91 193.398 307.91 194.375C307.91 195.351 308.624 196.055 309.569 196.055ZM316.109 197.137C314.524 197.137 313.337 195.929 313.337 194.375C313.337 192.81 314.524 191.613 316.109 191.613C317.138 191.613 318.031 192.149 318.451 192.968L317.474 193.535C317.243 193.041 316.729 192.726 316.099 192.726C315.175 192.726 314.471 193.43 314.471 194.375C314.471 195.32 315.175 196.023 316.099 196.023C316.729 196.023 317.243 195.698 317.495 195.215L318.472 195.771C318.031 196.601 317.138 197.137 316.109 197.137ZM322.168 192.842H320.866V195.362C320.866 196.034 321.307 196.023 322.168 195.981V197C320.425 197.21 319.732 196.727 319.732 195.362V192.842H318.766V191.75H319.732V190.616L320.866 190.28V191.75H322.168V192.842ZM323.711 190.962C323.312 190.962 322.987 190.626 322.987 190.238C322.987 189.839 323.312 189.513 323.711 189.513C324.11 189.513 324.436 189.839 324.436 190.238C324.436 190.626 324.11 190.962 323.711 190.962ZM323.144 197V191.75H324.278V197H323.144ZM328.021 197.137C326.488 197.137 325.249 195.929 325.249 194.375C325.249 192.81 326.488 191.613 328.021 191.613C329.564 191.613 330.793 192.81 330.793 194.375C330.793 195.929 329.564 197.137 328.021 197.137ZM328.021 196.034C328.945 196.034 329.659 195.33 329.659 194.375C329.659 193.419 328.945 192.716 328.021 192.716C327.097 192.716 326.383 193.419 326.383 194.375C326.383 195.33 327.097 196.034 328.021 196.034ZM334.527 191.613C335.703 191.613 336.543 192.411 336.543 193.776V197H335.409V193.892C335.409 193.094 334.947 192.674 334.233 192.674C333.487 192.674 332.899 193.115 332.899 194.186V197H331.765V191.75H332.899V192.422C333.246 191.876 333.813 191.613 334.527 191.613Z" fill="#3E3737"/>
<rect x="-1" y="156" width="360" height="0.358255" fill="#E1E1E1"/>
</g>
<defs>
<clipPath id="clip0_325_20502">
<rect width="358" height="215" rx="8" fill="white"/>
</clipPath>
</defs>
</svg>
