<svg width="1001" height="321" viewBox="0 0 1001 321" fill="none" xmlns="http://www.w3.org/2000/svg">
<rect width="1001" height="321" rx="16" fill="#F0F0F0"/>
<path d="M43.568 47.788C44.984 48.532 45.92 49.9 45.92 51.7C45.92 54.484 43.664 56.5 40.88 56.5H33.68V39.7H40.352C43.064 39.7 45.272 41.668 45.272 44.356C45.272 45.82 44.624 47.02 43.568 47.788ZM40.352 42.292H36.44V46.708H40.352C41.576 46.708 42.512 45.748 42.512 44.5C42.512 43.252 41.576 42.292 40.352 42.292ZM40.88 53.908C42.176 53.908 43.16 52.876 43.16 51.556C43.16 50.236 42.176 49.204 40.88 49.204H36.44V53.908H40.88ZM56.3628 44.5H58.9548V56.5H56.3628V54.964C55.5708 56.212 54.2748 56.812 52.6428 56.812C49.9548 56.812 48.0348 54.988 48.0348 51.868V44.5H50.6268V51.604C50.6268 53.428 51.6828 54.388 53.3148 54.388C55.0188 54.388 56.3628 53.38 56.3628 50.932V44.5ZM69.9538 44.5H72.7138L68.1058 56.884C66.9778 59.932 65.0098 61.468 62.2498 61.3V58.876C63.9298 58.972 64.8418 58.108 65.4418 56.524L65.5618 56.284L60.4738 44.5H63.3058L66.8818 53.212L69.9538 44.5ZM75.6582 53.62L73.9782 59.86H71.8182L72.7782 53.62H75.6582ZM93.7218 44.5H96.2658V55.948C96.2658 59.812 93.2418 61.612 90.0978 61.612C87.4578 61.612 85.4178 60.628 84.4098 58.708L86.6418 57.412C87.1698 58.444 88.0578 59.26 90.1458 59.26C92.3778 59.26 93.7218 58.036 93.7218 55.948V54.484C92.8098 55.78 91.3938 56.572 89.5458 56.572C86.1618 56.572 83.4978 53.812 83.4978 50.38C83.4978 46.948 86.1618 44.188 89.5458 44.188C91.3938 44.188 92.8098 44.98 93.7218 46.276V44.5ZM89.9058 54.148C92.0898 54.148 93.7218 52.54 93.7218 50.38C93.7218 48.22 92.0898 46.612 89.9058 46.612C87.7218 46.612 86.0898 48.22 86.0898 50.38C86.0898 52.54 87.7218 54.148 89.9058 54.148ZM100.463 42.7C99.551 42.7 98.807 41.932 98.807 41.044C98.807 40.132 99.551 39.388 100.463 39.388C101.375 39.388 102.119 40.132 102.119 41.044C102.119 41.932 101.375 42.7 100.463 42.7ZM99.167 56.5V44.5H101.759V56.5H99.167ZM110.937 41.884C109.113 41.716 108.105 42.412 108.105 44.26V44.5H110.937V46.996H108.105V56.5H105.513V46.996H103.689V44.5H105.513V44.26C105.513 41.02 107.337 39.148 110.937 39.388V41.884ZM119.451 46.996H116.475V52.756C116.475 54.292 117.483 54.268 119.451 54.172V56.5C115.467 56.98 113.883 55.876 113.883 52.756V46.996H111.675V44.5H113.883V41.908L116.475 41.14V44.5H119.451V46.996ZM133.343 56.812C129.839 56.812 127.007 54.052 127.007 50.5C127.007 46.924 129.839 44.188 133.343 44.188C136.871 44.188 139.679 46.924 139.679 50.5C139.679 54.052 136.871 56.812 133.343 56.812ZM133.343 54.292C135.455 54.292 137.087 52.684 137.087 50.5C137.087 48.316 135.455 46.708 133.343 46.708C131.231 46.708 129.599 48.316 129.599 50.5C129.599 52.684 131.231 54.292 133.343 54.292ZM144.495 46.516C145.215 44.884 146.679 44.284 148.191 44.284V47.092C146.487 46.972 144.495 47.764 144.495 50.452V56.5H141.903V44.5H144.495V46.516ZM158.458 46.516C159.178 44.884 160.642 44.284 162.154 44.284V47.092C160.45 46.972 158.458 47.764 158.458 50.452V56.5H155.866V44.5H158.458V46.516ZM165.427 51.604C165.835 53.476 167.347 54.436 169.267 54.436C170.707 54.436 171.787 53.788 172.363 52.948L174.499 54.196C173.395 55.828 171.595 56.812 169.243 56.812C165.283 56.812 162.715 54.1 162.715 50.5C162.715 46.948 165.283 44.188 169.051 44.188C172.627 44.188 175.075 47.068 175.075 50.524C175.075 50.884 175.027 51.268 174.979 51.604H165.427ZM165.403 49.492H172.459C172.099 47.428 170.587 46.54 169.027 46.54C167.083 46.54 165.763 47.692 165.403 49.492ZM179.095 47.812C179.095 49.996 185.551 48.676 185.551 53.116C185.551 55.516 183.463 56.812 180.871 56.812C178.471 56.812 176.743 55.732 175.975 54.004L178.207 52.708C178.591 53.788 179.551 54.436 180.871 54.436C182.023 54.436 182.911 54.052 182.911 53.092C182.911 50.956 176.455 52.156 176.455 47.86C176.455 45.604 178.399 44.188 180.847 44.188C182.815 44.188 184.447 45.1 185.287 46.684L183.103 47.908C182.671 46.972 181.831 46.54 180.847 46.54C179.911 46.54 179.095 46.948 179.095 47.812ZM189.445 51.604C189.853 53.476 191.365 54.436 193.285 54.436C194.725 54.436 195.805 53.788 196.381 52.948L198.517 54.196C197.413 55.828 195.613 56.812 193.261 56.812C189.301 56.812 186.733 54.1 186.733 50.5C186.733 46.948 189.301 44.188 193.069 44.188C196.645 44.188 199.093 47.068 199.093 50.524C199.093 50.884 199.045 51.268 198.997 51.604H189.445ZM189.421 49.492H196.477C196.117 47.428 194.605 46.54 193.045 46.54C191.101 46.54 189.781 47.692 189.421 49.492ZM201.253 56.5V38.98H203.845V56.5H201.253ZM206.735 56.5V38.98H209.327V56.5H206.735ZM224.792 46.996H221.816V52.756C221.816 54.292 222.824 54.268 224.792 54.172V56.5C220.808 56.98 219.224 55.876 219.224 52.756V46.996H217.016V44.5H219.224V41.908L221.816 41.14V44.5H224.792V46.996ZM228.319 42.7C227.407 42.7 226.663 41.932 226.663 41.044C226.663 40.132 227.407 39.388 228.319 39.388C229.231 39.388 229.975 40.132 229.975 41.044C229.975 41.932 229.231 42.7 228.319 42.7ZM227.023 56.5V44.5H229.615V56.5H227.023ZM238.169 56.812C234.545 56.812 231.833 54.052 231.833 50.5C231.833 46.924 234.545 44.188 238.169 44.188C240.521 44.188 242.561 45.412 243.521 47.284L241.289 48.58C240.761 47.452 239.585 46.732 238.145 46.732C236.033 46.732 234.425 48.34 234.425 50.5C234.425 52.66 236.033 54.268 238.145 54.268C239.585 54.268 240.761 53.524 241.337 52.42L243.569 53.692C242.561 55.588 240.521 56.812 238.169 56.812ZM255.93 56.5H252.834L247.914 50.956V56.5H245.322V39.7H247.914V49.804L252.57 44.5H255.738L250.458 50.38L255.93 56.5ZM258.633 51.604C259.041 53.476 260.553 54.436 262.473 54.436C263.913 54.436 264.993 53.788 265.569 52.948L267.705 54.196C266.601 55.828 264.801 56.812 262.449 56.812C258.489 56.812 255.921 54.1 255.921 50.5C255.921 46.948 258.489 44.188 262.257 44.188C265.833 44.188 268.281 47.068 268.281 50.524C268.281 50.884 268.233 51.268 268.185 51.604H258.633ZM258.609 49.492H265.665C265.305 47.428 263.793 46.54 262.233 46.54C260.289 46.54 258.969 47.692 258.609 49.492ZM276.763 46.996H273.787V52.756C273.787 54.292 274.795 54.268 276.763 54.172V56.5C272.779 56.98 271.195 55.876 271.195 52.756V46.996H268.987V44.5H271.195V41.908L273.787 41.14V44.5H276.763V46.996ZM280.876 47.812C280.876 49.996 287.332 48.676 287.332 53.116C287.332 55.516 285.244 56.812 282.652 56.812C280.252 56.812 278.524 55.732 277.756 54.004L279.988 52.708C280.372 53.788 281.332 54.436 282.652 54.436C283.804 54.436 284.692 54.052 284.692 53.092C284.692 50.956 278.236 52.156 278.236 47.86C278.236 45.604 280.18 44.188 282.628 44.188C284.596 44.188 286.228 45.1 287.068 46.684L284.884 47.908C284.452 46.972 283.612 46.54 282.628 46.54C281.692 46.54 280.876 46.948 280.876 47.812ZM43.016 76.5H45.608V88.5H43.016V86.772C42.104 88.044 40.688 88.812 38.816 88.812C35.552 88.812 32.84 86.052 32.84 82.5C32.84 78.924 35.552 76.188 38.816 76.188C40.688 76.188 42.104 76.956 43.016 78.204V76.5ZM39.224 86.34C41.384 86.34 43.016 84.732 43.016 82.5C43.016 80.268 41.384 78.66 39.224 78.66C37.064 78.66 35.432 80.268 35.432 82.5C35.432 84.732 37.064 86.34 39.224 86.34ZM54.8212 76.188C57.5092 76.188 59.4292 78.012 59.4292 81.132V88.5H56.8372V81.396C56.8372 79.572 55.7812 78.612 54.1492 78.612C52.4452 78.612 51.1012 79.62 51.1012 82.068V88.5H48.5092V76.5H51.1012V78.036C51.8932 76.788 53.1892 76.188 54.8212 76.188ZM71.6041 71.7H74.1961V88.5H71.6041V86.772C70.6921 88.044 69.2761 88.812 67.4041 88.812C64.1401 88.812 61.4281 86.052 61.4281 82.5C61.4281 78.924 64.1401 76.188 67.4041 76.188C69.2761 76.188 70.6921 76.956 71.6041 78.204V71.7ZM67.8121 86.34C69.9721 86.34 71.6041 84.732 71.6041 82.5C71.6041 80.268 69.9721 78.66 67.8121 78.66C65.6521 78.66 64.0201 80.268 64.0201 82.5C64.0201 84.732 65.6521 86.34 67.8121 86.34ZM96.0813 76.188C98.7933 76.188 100.617 78.06 100.617 81.06V88.5H98.0253V81.228C98.0253 79.548 97.1133 78.612 95.6973 78.612C94.1613 78.612 93.0813 79.596 93.0813 81.78V88.5H90.4893V81.228C90.4893 79.548 89.6493 78.612 88.2333 78.612C86.7693 78.612 85.5693 79.596 85.5693 81.78V88.5H82.9773V76.5H85.5693V77.94C86.3373 76.764 87.5133 76.188 89.0013 76.188C90.5613 76.188 91.7133 76.884 92.4093 78.084C93.2013 76.836 94.4733 76.188 96.0813 76.188ZM112.775 76.5H115.367V88.5H112.775V86.772C111.863 88.044 110.447 88.812 108.575 88.812C105.311 88.812 102.599 86.052 102.599 82.5C102.599 78.924 105.311 76.188 108.575 76.188C110.447 76.188 111.863 76.956 112.775 78.204V76.5ZM108.983 86.34C111.143 86.34 112.775 84.732 112.775 82.5C112.775 80.268 111.143 78.66 108.983 78.66C106.823 78.66 105.191 80.268 105.191 82.5C105.191 84.732 106.823 86.34 108.983 86.34ZM124.581 76.188C127.269 76.188 129.189 78.012 129.189 81.132V88.5H126.597V81.396C126.597 79.572 125.541 78.612 123.909 78.612C122.205 78.612 120.861 79.62 120.861 82.068V88.5H118.269V76.5H120.861V78.036C121.653 76.788 122.949 76.188 124.581 76.188ZM139.713 76.5H142.473L137.865 88.884C136.737 91.932 134.769 93.468 132.009 93.3V90.876C133.689 90.972 134.601 90.108 135.201 88.524L135.321 88.284L130.233 76.5H133.065L136.641 85.212L139.713 76.5ZM162.958 76.188C165.67 76.188 167.494 78.06 167.494 81.06V88.5H164.902V81.228C164.902 79.548 163.99 78.612 162.574 78.612C161.038 78.612 159.958 79.596 159.958 81.78V88.5H157.366V81.228C157.366 79.548 156.526 78.612 155.11 78.612C153.646 78.612 152.446 79.596 152.446 81.78V88.5H149.854V76.5H152.446V77.94C153.214 76.764 154.39 76.188 155.878 76.188C157.438 76.188 158.59 76.884 159.286 78.084C160.078 76.836 161.35 76.188 162.958 76.188ZM175.812 88.812C172.308 88.812 169.476 86.052 169.476 82.5C169.476 78.924 172.308 76.188 175.812 76.188C179.34 76.188 182.148 78.924 182.148 82.5C182.148 86.052 179.34 88.812 175.812 88.812ZM175.812 86.292C177.924 86.292 179.556 84.684 179.556 82.5C179.556 80.316 177.924 78.708 175.812 78.708C173.7 78.708 172.068 80.316 172.068 82.5C172.068 84.684 173.7 86.292 175.812 86.292ZM186.964 78.516C187.684 76.884 189.148 76.284 190.66 76.284V79.092C188.956 78.972 186.964 79.764 186.964 82.452V88.5H184.372V76.5H186.964V78.516ZM193.932 83.604C194.34 85.476 195.852 86.436 197.772 86.436C199.212 86.436 200.292 85.788 200.868 84.948L203.004 86.196C201.9 87.828 200.1 88.812 197.748 88.812C193.788 88.812 191.22 86.1 191.22 82.5C191.22 78.948 193.788 76.188 197.556 76.188C201.132 76.188 203.58 79.068 203.58 82.524C203.58 82.884 203.532 83.268 203.484 83.604H193.932ZM193.908 81.492H200.964C200.604 79.428 199.092 78.54 197.532 78.54C195.588 78.54 194.268 79.692 193.908 81.492ZM217.285 88.812C213.781 88.812 210.949 86.052 210.949 82.5C210.949 78.924 213.781 76.188 217.285 76.188C220.813 76.188 223.621 78.924 223.621 82.5C223.621 86.052 220.813 88.812 217.285 88.812ZM217.285 86.292C219.397 86.292 221.029 84.684 221.029 82.5C221.029 80.316 219.397 78.708 217.285 78.708C215.173 78.708 213.541 80.316 213.541 82.5C213.541 84.684 215.173 86.292 217.285 86.292ZM232.157 76.188C234.845 76.188 236.765 78.012 236.765 81.132V88.5H234.173V81.396C234.173 79.572 233.117 78.612 231.485 78.612C229.781 78.612 228.437 79.62 228.437 82.068V88.5H225.845V76.5H228.437V78.036C229.229 76.788 230.525 76.188 232.157 76.188ZM44.6 103.7V106.34H39.872V120.5H37.112V106.34H32.36V103.7H44.6ZM47.6489 106.7C46.7369 106.7 45.9929 105.932 45.9929 105.044C45.9929 104.132 46.7369 103.388 47.6489 103.388C48.5609 103.388 49.3049 104.132 49.3049 105.044C49.3049 105.932 48.5609 106.7 47.6489 106.7ZM46.3529 120.5V108.5H48.9449V120.5H46.3529ZM57.4985 120.812C53.8745 120.812 51.1625 118.052 51.1625 114.5C51.1625 110.924 53.8745 108.188 57.4985 108.188C59.8505 108.188 61.8905 109.412 62.8505 111.284L60.6185 112.58C60.0905 111.452 58.9145 110.732 57.4745 110.732C55.3625 110.732 53.7545 112.34 53.7545 114.5C53.7545 116.66 55.3625 118.268 57.4745 118.268C58.9145 118.268 60.0905 117.524 60.6665 116.42L62.8985 117.692C61.8905 119.588 59.8505 120.812 57.4985 120.812ZM75.26 120.5H72.164L67.244 114.956V120.5H64.652V103.7H67.244V113.804L71.9 108.5H75.068L69.788 114.38L75.26 120.5ZM77.9626 115.604C78.3706 117.476 79.8826 118.436 81.8026 118.436C83.2426 118.436 84.3226 117.788 84.8986 116.948L87.0346 118.196C85.9306 119.828 84.1306 120.812 81.7786 120.812C77.8186 120.812 75.2506 118.1 75.2506 114.5C75.2506 110.948 77.8186 108.188 81.5866 108.188C85.1626 108.188 87.6106 111.068 87.6106 114.524C87.6106 114.884 87.5626 115.268 87.5146 115.604H77.9626ZM77.9386 113.492H84.9946C84.6346 111.428 83.1226 110.54 81.5626 110.54C79.6186 110.54 78.2986 111.692 77.9386 113.492ZM96.0924 110.996H93.1164V116.756C93.1164 118.292 94.1244 118.268 96.0924 118.172V120.5C92.1084 120.98 90.5244 119.876 90.5244 116.756V110.996H88.3164V108.5H90.5244V105.908L93.1164 105.14V108.5H96.0924V110.996ZM98.3741 114.452V111.956H107.254V114.452H98.3741ZM111.616 106.7C110.704 106.7 109.96 105.932 109.96 105.044C109.96 104.132 110.704 103.388 111.616 103.388C112.528 103.388 113.272 104.132 113.272 105.044C113.272 105.932 112.528 106.7 111.616 106.7ZM110.32 120.5V108.5H112.912V120.5H110.32ZM122.498 110.996H119.522V116.756C119.522 118.292 120.53 118.268 122.498 118.172V120.5C118.514 120.98 116.93 119.876 116.93 116.756V110.996H114.722V108.5H116.93V105.908L119.522 105.14V108.5H122.498V110.996Z" fill="#3E3737"/>
<rect x="512" y="32" width="457" height="96" fill="#D9D7D7"/>
<rect x="34.5" y="184" width="932" height="1" fill="#E1E1E1"/>
<circle cx="67" cy="261" r="28" fill="#E9E9E9"/>
<path d="M70.7002 245C68.3155 245 67.1436 248.067 68.777 249.827C69.5936 250.708 70.8104 250.876 71.7493 250.457C72.6881 250.038 73.3919 249.053 73.392 247.841C73.3921 246.311 72.2108 245 70.7002 245ZM70.7002 246.452C71.3569 246.452 71.9332 247.035 71.9332 247.841C71.9332 248.513 71.5795 248.941 71.1527 249.131C70.7259 249.322 70.2686 249.295 69.8494 248.843C69.0111 247.939 69.589 246.452 70.7002 246.452Z" fill="#534A4A"/>
<path d="M71.965 251.723C71.9527 251.724 71.9404 251.724 71.9281 251.725C66.5099 252.206 61.0914 252.687 55.6733 253.167C55.5771 253.175 55.4833 253.201 55.3974 253.245C55.3114 253.288 55.2351 253.349 55.1727 253.422C55.1104 253.495 55.0632 253.58 55.0341 253.672C55.0049 253.763 54.9943 253.86 55.0029 253.955C55.0114 254.051 55.039 254.144 55.0839 254.229C55.1288 254.314 55.1903 254.389 55.2647 254.45C55.339 254.512 55.4249 254.558 55.5172 254.585C55.6095 254.613 55.7065 254.623 55.8025 254.613C59.4284 254.292 63.0546 253.97 66.6805 253.649C66.2541 255.606 65.4007 256.542 64.0663 257.664C63.9838 257.734 63.9178 257.821 63.8731 257.918C63.8285 258.016 63.8062 258.123 63.808 258.23C63.8098 258.338 63.8355 258.444 63.8834 258.54C63.9312 258.637 64 258.721 64.0848 258.788C65.561 259.95 67.0368 261.111 68.5128 262.273C68.5939 262.337 68.6876 262.383 68.7879 262.408C68.8882 262.433 68.9926 262.436 69.0943 262.418C69.1961 262.4 69.2928 262.36 69.378 262.302C69.4632 262.244 69.5351 262.168 69.5887 262.081C71.258 259.356 71.9966 256.783 74.8988 255.108C75.7259 255.845 76.49 256.699 77.2978 257.637L73.1454 262.524C73.0203 262.671 72.9592 262.861 72.9752 263.053C72.9913 263.245 73.0834 263.423 73.2311 263.547C73.3789 263.672 73.5703 263.732 73.7631 263.716C73.956 263.7 74.1346 263.609 74.2596 263.462L78.8276 258.083C78.9391 257.952 79.0002 257.786 78.9999 257.614C78.9997 257.442 78.9381 257.275 78.8261 257.144C76.9246 254.924 75.179 252.872 72.2519 251.769C72.1603 251.735 72.0628 251.719 71.965 251.723Z" fill="#534A4A"/>
<path d="M64.212 259.716C64.106 259.721 64.0025 259.75 63.9087 259.799C63.8148 259.848 63.733 259.917 63.6687 260.001L59.963 264.712C59.9019 264.787 59.8564 264.873 59.8292 264.966C59.802 265.058 59.7935 265.155 59.8044 265.251C59.8152 265.347 59.8451 265.44 59.8923 265.524C59.9395 265.608 60.0031 265.682 60.0794 265.741C60.1556 265.801 60.243 265.845 60.3364 265.87C60.4298 265.896 60.5274 265.902 60.6235 265.89C60.7195 265.877 60.8121 265.846 60.8959 265.798C60.9797 265.749 61.0529 265.685 61.1113 265.608L64.8178 260.897C64.9064 260.788 64.9613 260.656 64.9759 260.516C64.9905 260.376 64.9642 260.236 64.9001 260.111C64.836 259.986 64.7369 259.882 64.6148 259.812C64.4927 259.742 64.3528 259.708 64.212 259.716Z" fill="#534A4A"/>
<path d="M66.6089 261.97C66.5027 261.976 66.3992 262.004 66.3055 262.054C66.2117 262.104 66.1301 262.174 66.0663 262.259L56.0782 275.106C56.0171 275.181 55.9716 275.268 55.9445 275.36C55.9174 275.453 55.9092 275.551 55.9204 275.647C55.9316 275.743 55.962 275.835 56.0097 275.92C56.0575 276.004 56.1216 276.078 56.1985 276.137C56.2753 276.196 56.3632 276.239 56.4571 276.264C56.551 276.289 56.6489 276.295 56.7451 276.282C56.8414 276.269 56.934 276.236 57.0175 276.187C57.101 276.138 57.1738 276.072 57.2316 275.994L67.2204 263.146C67.304 263.042 67.357 262.916 67.3733 262.783C67.3897 262.65 67.3688 262.516 67.313 262.394C67.2572 262.272 67.1687 262.168 67.0573 262.093C66.9458 262.018 66.8157 261.976 66.6813 261.97C66.6572 261.968 66.633 261.968 66.6089 261.97Z" fill="#534A4A"/>
<path d="M64.6329 271.709C62.4015 271.709 61.3001 274.572 62.829 276.21C63.5935 277.03 64.7362 277.187 65.6158 276.796C66.4954 276.406 67.1555 275.485 67.1555 274.357C67.1555 272.931 66.0481 271.709 64.6329 271.709Z" fill="#534A4A"/>
<path d="M113.416 266.5L112.632 264.244H107.864L107.08 266.5H105.08L109.144 255.3H111.352L115.4 266.5H113.416ZM108.472 262.516H112.024L110.248 257.46L108.472 262.516ZM121.711 258.5H123.439V266.5H121.711V265.476C121.183 266.308 120.319 266.708 119.231 266.708C117.439 266.708 116.159 265.492 116.159 263.412V258.5H117.887V263.236C117.887 264.452 118.591 265.092 119.679 265.092C120.815 265.092 121.711 264.42 121.711 262.788V258.5ZM129.843 260.164H127.859V264.004C127.859 265.028 128.531 265.012 129.843 264.948V266.5C127.187 266.82 126.131 266.084 126.131 264.004V260.164H124.659V258.5H126.131V256.772L127.859 256.26V258.5H129.843V260.164ZM135.539 258.292C137.331 258.292 138.611 259.508 138.611 261.588V266.5H136.883V261.764C136.883 260.548 136.179 259.908 135.091 259.908C133.955 259.908 133.059 260.58 133.059 262.212V266.5H131.331V255.3H133.059V259.524C133.587 258.692 134.451 258.292 135.539 258.292ZM144.167 266.708C141.831 266.708 139.943 264.868 139.943 262.5C139.943 260.116 141.831 258.292 144.167 258.292C146.519 258.292 148.391 260.116 148.391 262.5C148.391 264.868 146.519 266.708 144.167 266.708ZM144.167 265.028C145.575 265.028 146.663 263.956 146.663 262.5C146.663 261.044 145.575 259.972 144.167 259.972C142.759 259.972 141.671 261.044 141.671 262.5C141.671 263.956 142.759 265.028 144.167 265.028ZM151.602 259.844C152.082 258.756 153.058 258.356 154.066 258.356V260.228C152.93 260.148 151.602 260.676 151.602 262.468V266.5H149.874V258.5H151.602V259.844ZM156.126 257.3C155.518 257.3 155.022 256.788 155.022 256.196C155.022 255.588 155.518 255.092 156.126 255.092C156.734 255.092 157.23 255.588 157.23 256.196C157.23 256.788 156.734 257.3 156.126 257.3ZM155.262 266.5V258.5H156.99V266.5H155.262ZM160.422 260.708C160.422 262.164 164.726 261.284 164.726 264.244C164.726 265.844 163.334 266.708 161.606 266.708C160.006 266.708 158.854 265.988 158.342 264.836L159.83 263.972C160.086 264.692 160.726 265.124 161.606 265.124C162.374 265.124 162.966 264.868 162.966 264.228C162.966 262.804 158.662 263.604 158.662 260.74C158.662 259.236 159.958 258.292 161.59 258.292C162.902 258.292 163.99 258.9 164.55 259.956L163.094 260.772C162.806 260.148 162.246 259.86 161.59 259.86C160.966 259.86 160.422 260.132 160.422 260.708ZM167.322 263.236C167.594 264.484 168.602 265.124 169.882 265.124C170.842 265.124 171.562 264.692 171.946 264.132L173.37 264.964C172.634 266.052 171.434 266.708 169.866 266.708C167.226 266.708 165.514 264.9 165.514 262.5C165.514 260.132 167.226 258.292 169.738 258.292C172.122 258.292 173.754 260.212 173.754 262.516C173.754 262.756 173.722 263.012 173.69 263.236H167.322ZM167.306 261.828H172.01C171.77 260.452 170.762 259.86 169.722 259.86C168.426 259.86 167.546 260.628 167.306 261.828ZM181.483 255.3H183.211V266.5H181.483V265.348C180.875 266.196 179.931 266.708 178.683 266.708C176.507 266.708 174.699 264.868 174.699 262.5C174.699 260.116 176.507 258.292 178.683 258.292C179.931 258.292 180.875 258.804 181.483 259.636V255.3ZM178.955 265.06C180.395 265.06 181.483 263.988 181.483 262.5C181.483 261.012 180.395 259.94 178.955 259.94C177.515 259.94 176.427 261.012 176.427 262.5C176.427 263.988 177.515 265.06 178.955 265.06ZM193.594 258.292C195.77 258.292 197.578 260.116 197.578 262.5C197.578 264.868 195.77 266.708 193.594 266.708C192.346 266.708 191.402 266.196 190.794 265.348V266.5H189.066V255.3H190.794V259.636C191.402 258.804 192.346 258.292 193.594 258.292ZM193.322 265.06C194.762 265.06 195.85 263.988 195.85 262.5C195.85 261.012 194.762 259.94 193.322 259.94C191.882 259.94 190.794 261.012 190.794 262.5C190.794 263.988 191.882 265.06 193.322 265.06ZM204.143 258.5H205.983L202.911 266.756C202.159 268.788 200.847 269.812 199.007 269.7V268.084C200.127 268.148 200.735 267.572 201.135 266.516L201.215 266.356L197.823 258.5H199.711L202.095 264.308L204.143 258.5ZM215.368 260.164H213.384V264.004C213.384 265.028 214.056 265.012 215.368 264.948V266.5C212.712 266.82 211.656 266.084 211.656 264.004V260.164H210.184V258.5H211.656V256.772L213.384 256.26V258.5H215.368V260.164ZM221.063 258.292C222.855 258.292 224.135 259.508 224.135 261.588V266.5H222.407V261.764C222.407 260.548 221.703 259.908 220.615 259.908C219.479 259.908 218.583 260.58 218.583 262.212V266.5H216.855V255.3H218.583V259.524C219.111 258.692 219.975 258.292 221.063 258.292ZM227.276 263.236C227.548 264.484 228.556 265.124 229.836 265.124C230.796 265.124 231.516 264.692 231.9 264.132L233.324 264.964C232.588 266.052 231.388 266.708 229.82 266.708C227.18 266.708 225.468 264.9 225.468 262.5C225.468 260.132 227.18 258.292 229.692 258.292C232.076 258.292 233.708 260.212 233.708 262.516C233.708 262.756 233.676 263.012 233.644 263.236H227.276ZM227.26 261.828H231.964C231.724 260.452 230.716 259.86 229.676 259.86C228.38 259.86 227.5 260.628 227.26 261.828ZM245.74 257.06H241.02V260.196H245.58V261.956H241.02V266.5H239.18V255.3H245.74V257.06ZM251.781 255.3C254.869 255.3 257.141 257.764 257.141 260.9C257.141 264.02 254.869 266.5 251.781 266.5H247.381V255.3H251.781ZM251.781 264.74C253.909 264.74 255.365 263.108 255.365 260.9C255.365 258.676 253.909 257.06 251.781 257.06H249.221V264.74H251.781ZM260.579 264.74H265.139V266.5H258.739V255.3H260.579V264.74Z" fill="#3E3737"/>
<circle cx="463" cy="261" r="28" fill="#E9E9E9"/>
<path d="M470.29 251.7C468.182 251.523 466.112 251.031 464.15 250.24C463.787 250.082 463.396 250 463 250C462.604 250 462.213 250.082 461.85 250.24C459.888 251.031 457.818 251.523 455.71 251.7C454.967 251.772 454.278 252.118 453.777 252.671C453.276 253.224 452.999 253.943 453 254.69V259.35C453 264.91 455.77 268.84 461.72 271.71C462.12 271.898 462.557 271.996 463 271.996C463.443 271.996 463.88 271.898 464.28 271.71C470.28 268.84 473 264.91 473 259.35V254.69C473.001 253.943 472.724 253.224 472.223 252.671C471.722 252.118 471.033 251.772 470.29 251.7ZM471 259.35C471 264.12 468.66 267.35 463.41 269.91C463.281 269.968 463.141 269.997 463 269.997C462.859 269.997 462.719 269.968 462.59 269.91C457.34 267.37 455 264.12 455 259.35V254.69C454.999 254.441 455.09 254.2 455.257 254.016C455.423 253.831 455.652 253.714 455.9 253.69C458.211 253.487 460.48 252.941 462.63 252.07C462.868 251.975 463.132 251.975 463.37 252.07C465.52 252.941 467.789 253.487 470.1 253.69C470.348 253.714 470.577 253.831 470.743 254.016C470.91 254.2 471.001 254.441 471 254.69V259.35Z" fill="#534A4A"/>
<path d="M466.34 257.33L462.23 261.33L460.65 259.82C460.463 259.634 460.209 259.53 459.945 259.53C459.681 259.53 459.427 259.634 459.24 259.82C459.146 259.913 459.072 260.024 459.021 260.146C458.97 260.268 458.944 260.398 458.944 260.53C458.944 260.662 458.97 260.793 459.021 260.915C459.072 261.037 459.146 261.147 459.24 261.24L461.52 263.48C461.707 263.667 461.961 263.771 462.225 263.771C462.489 263.771 462.743 263.667 462.93 263.48L467.74 258.75C467.93 258.563 468.037 258.309 468.039 258.042C468.041 257.776 467.937 257.52 467.75 257.33C467.563 257.141 467.308 257.033 467.042 257.031C466.776 257.029 466.52 257.133 466.33 257.32L466.34 257.33Z" fill="#534A4A"/>
<path d="M514.848 255.708C512.64 255.708 511.12 254.62 510.528 252.956L512.112 252.028C512.512 253.164 513.376 253.916 514.896 253.916C516.352 253.916 516.976 253.26 516.976 252.444C516.976 251.452 516.096 251.116 514.432 250.604C512.688 250.076 510.992 249.436 510.992 247.324C510.992 245.26 512.704 244.092 514.592 244.092C516.432 244.092 517.792 245.068 518.496 246.556L516.944 247.452C516.544 246.556 515.84 245.884 514.592 245.884C513.52 245.884 512.832 246.428 512.832 247.276C512.832 248.14 513.456 248.508 515.088 249.02C516.944 249.612 518.816 250.188 518.816 252.412C518.816 254.46 517.184 255.708 514.848 255.708ZM521.788 252.236C522.06 253.484 523.068 254.124 524.348 254.124C525.308 254.124 526.028 253.692 526.412 253.132L527.836 253.964C527.1 255.052 525.9 255.708 524.332 255.708C521.692 255.708 519.98 253.9 519.98 251.5C519.98 249.132 521.692 247.292 524.204 247.292C526.588 247.292 528.22 249.212 528.22 251.516C528.22 251.756 528.188 252.012 528.156 252.236H521.788ZM521.772 250.828H526.476C526.236 249.452 525.228 248.86 524.188 248.86C522.892 248.86 522.012 249.628 521.772 250.828ZM533.39 255.708C530.974 255.708 529.166 253.868 529.166 251.5C529.166 249.116 530.974 247.292 533.39 247.292C534.958 247.292 536.318 248.108 536.958 249.356L535.47 250.22C535.118 249.468 534.334 248.988 533.374 248.988C531.966 248.988 530.894 250.06 530.894 251.5C530.894 252.94 531.966 254.012 533.374 254.012C534.334 254.012 535.118 253.516 535.502 252.78L536.99 253.628C536.318 254.892 534.958 255.708 533.39 255.708ZM543.598 247.5H545.326V255.5H543.598V254.476C543.07 255.308 542.206 255.708 541.118 255.708C539.326 255.708 538.046 254.492 538.046 252.412V247.5H539.774V252.236C539.774 253.452 540.478 254.092 541.566 254.092C542.702 254.092 543.598 253.42 543.598 251.788V247.5ZM548.994 248.844C549.474 247.756 550.45 247.356 551.458 247.356V249.228C550.322 249.148 548.994 249.676 548.994 251.468V255.5H547.266V247.5H548.994V248.844ZM553.64 252.236C553.912 253.484 554.92 254.124 556.2 254.124C557.16 254.124 557.88 253.692 558.264 253.132L559.688 253.964C558.952 255.052 557.752 255.708 556.184 255.708C553.544 255.708 551.832 253.9 551.832 251.5C551.832 249.132 553.544 247.292 556.056 247.292C558.44 247.292 560.072 249.212 560.072 251.516C560.072 251.756 560.04 252.012 560.008 252.236H553.64ZM553.624 250.828H558.328C558.088 249.452 557.08 248.86 556.04 248.86C554.744 248.86 553.864 249.628 553.624 250.828ZM569.896 249.164H567.912V253.004C567.912 254.028 568.584 254.012 569.896 253.948V255.5C567.24 255.82 566.184 255.084 566.184 253.004V249.164H564.712V247.5H566.184V245.772L567.912 245.26V247.5H569.896V249.164ZM572.248 246.3C571.64 246.3 571.144 245.788 571.144 245.196C571.144 244.588 571.64 244.092 572.248 244.092C572.856 244.092 573.352 244.588 573.352 245.196C573.352 245.788 572.856 246.3 572.248 246.3ZM571.384 255.5V247.5H573.112V255.5H571.384ZM578.814 255.708C576.398 255.708 574.59 253.868 574.59 251.5C574.59 249.116 576.398 247.292 578.814 247.292C580.382 247.292 581.742 248.108 582.382 249.356L580.894 250.22C580.542 249.468 579.758 248.988 578.798 248.988C577.39 248.988 576.318 250.06 576.318 251.5C576.318 252.94 577.39 254.012 578.798 254.012C579.758 254.012 580.542 253.516 580.926 252.78L582.414 253.628C581.742 254.892 580.382 255.708 578.814 255.708ZM590.655 255.5H588.591L585.311 251.804V255.5H583.583V244.3H585.311V251.036L588.415 247.5H590.527L587.007 251.42L590.655 255.5ZM592.457 252.236C592.729 253.484 593.737 254.124 595.017 254.124C595.977 254.124 596.697 253.692 597.081 253.132L598.505 253.964C597.769 255.052 596.569 255.708 595.001 255.708C592.361 255.708 590.649 253.9 590.649 251.5C590.649 249.132 592.361 247.292 594.873 247.292C597.257 247.292 598.889 249.212 598.889 251.516C598.889 251.756 598.857 252.012 598.825 252.236H592.457ZM592.441 250.828H597.145C596.905 249.452 595.897 248.86 594.857 248.86C593.561 248.86 592.681 249.628 592.441 250.828ZM604.543 249.164H602.559V253.004C602.559 254.028 603.231 254.012 604.543 253.948V255.5C601.887 255.82 600.831 255.084 600.831 253.004V249.164H599.359V247.5H600.831V245.772L602.559 245.26V247.5H604.543V249.164ZM515.536 269.292C517.712 269.292 519.52 271.132 519.52 273.5C519.52 275.884 517.712 277.708 515.536 277.708C514.288 277.708 513.344 277.196 512.736 276.364V280.7H511.008V269.5H512.736V270.652C513.344 269.804 514.288 269.292 515.536 269.292ZM515.264 276.06C516.704 276.06 517.792 274.988 517.792 273.5C517.792 272.012 516.704 270.94 515.264 270.94C513.824 270.94 512.736 272.012 512.736 273.5C512.736 274.988 513.824 276.06 515.264 276.06ZM522.734 270.844C523.214 269.756 524.19 269.356 525.198 269.356V271.228C524.062 271.148 522.734 271.676 522.734 273.468V277.5H521.006V269.5H522.734V270.844ZM529.796 277.708C527.46 277.708 525.572 275.868 525.572 273.5C525.572 271.116 527.46 269.292 529.796 269.292C532.148 269.292 534.02 271.116 534.02 273.5C534.02 275.868 532.148 277.708 529.796 277.708ZM529.796 276.028C531.204 276.028 532.292 274.956 532.292 273.5C532.292 272.044 531.204 270.972 529.796 270.972C528.388 270.972 527.3 272.044 527.3 273.5C527.3 274.956 528.388 276.028 529.796 276.028ZM539.81 271.164H537.826V275.004C537.826 276.028 538.498 276.012 539.81 275.948V277.5C537.154 277.82 536.098 277.084 536.098 275.004V271.164H534.626V269.5H536.098V267.772L537.826 267.26V269.5H539.81V271.164ZM542.329 274.236C542.601 275.484 543.609 276.124 544.889 276.124C545.849 276.124 546.569 275.692 546.953 275.132L548.377 275.964C547.641 277.052 546.441 277.708 544.873 277.708C542.233 277.708 540.521 275.9 540.521 273.5C540.521 271.132 542.233 269.292 544.745 269.292C547.129 269.292 548.761 271.212 548.761 273.516C548.761 273.756 548.729 274.012 548.697 274.236H542.329ZM542.313 272.828H547.017C546.777 271.452 545.769 270.86 544.729 270.86C543.433 270.86 542.553 271.628 542.313 272.828ZM553.931 277.708C551.515 277.708 549.707 275.868 549.707 273.5C549.707 271.116 551.515 269.292 553.931 269.292C555.499 269.292 556.859 270.108 557.499 271.356L556.011 272.22C555.659 271.468 554.875 270.988 553.915 270.988C552.507 270.988 551.435 272.06 551.435 273.5C551.435 274.94 552.507 276.012 553.915 276.012C554.875 276.012 555.659 275.516 556.043 274.78L557.531 275.628C556.859 276.892 555.499 277.708 553.931 277.708ZM563.164 271.164H561.18V275.004C561.18 276.028 561.852 276.012 563.164 275.948V277.5C560.508 277.82 559.452 277.084 559.452 275.004V271.164H557.98V269.5H559.452V267.772L561.18 267.26V269.5H563.164V271.164ZM565.515 268.3C564.907 268.3 564.411 267.788 564.411 267.196C564.411 266.588 564.907 266.092 565.515 266.092C566.123 266.092 566.619 266.588 566.619 267.196C566.619 267.788 566.123 268.3 565.515 268.3ZM564.651 277.5V269.5H566.379V277.5H564.651ZM572.082 277.708C569.746 277.708 567.858 275.868 567.858 273.5C567.858 271.116 569.746 269.292 572.082 269.292C574.434 269.292 576.306 271.116 576.306 273.5C576.306 275.868 574.434 277.708 572.082 277.708ZM572.082 276.028C573.49 276.028 574.578 274.956 574.578 273.5C574.578 272.044 573.49 270.972 572.082 270.972C570.674 270.972 569.586 272.044 569.586 273.5C569.586 274.956 570.674 276.028 572.082 276.028ZM581.996 269.292C583.788 269.292 585.068 270.508 585.068 272.588V277.5H583.34V272.764C583.34 271.548 582.636 270.908 581.548 270.908C580.412 270.908 579.516 271.58 579.516 273.212V277.5H577.788V269.5H579.516V270.524C580.044 269.692 580.908 269.292 581.996 269.292Z" fill="#3E3737"/>
<circle cx="806" cy="261" r="28" fill="#E9E9E9"/>
<path d="M814.163 263.722C814.023 263.722 813.883 263.675 813.79 263.535C812.53 262.042 811.317 260.642 810.011 259.336C809.824 259.149 809.824 258.823 810.011 258.636C810.197 258.449 810.524 258.449 810.71 258.636C812.017 259.989 813.23 261.389 814.536 262.882C814.723 263.068 814.676 263.395 814.49 263.535C814.396 263.675 814.303 263.722 814.163 263.722Z" fill="#534A4A"/>
<path d="M787.475 255.37C787.335 255.37 787.242 255.323 787.149 255.23C786.962 255.043 786.962 254.763 787.102 254.53C789.482 251.964 793.401 250.658 797.32 251.077C799.793 251.357 802.312 252.291 804.832 253.83C805.065 253.97 805.112 254.25 804.972 254.483C804.832 254.717 804.552 254.763 804.319 254.623C801.939 253.177 799.56 252.291 797.227 252.011C793.588 251.591 789.995 252.804 787.802 255.137C787.755 255.323 787.615 255.37 787.475 255.37Z" fill="#534A4A"/>
<path d="M811.364 266.427C811.224 266.427 811.084 266.38 810.99 266.24C809.684 264.7 808.284 263.067 806.838 261.621C806.651 261.434 806.651 261.155 806.838 260.921C807.025 260.735 807.305 260.735 807.538 260.921C809.078 262.414 810.431 264.001 811.784 265.587C811.97 265.774 811.924 266.1 811.737 266.24C811.597 266.38 811.457 266.427 811.364 266.427Z" fill="#534A4A"/>
<path d="M801.099 257.424C801.006 257.424 800.959 257.424 800.866 257.377C796.48 255.137 791.768 254.438 787.569 255.371C787.289 255.417 787.055 255.277 787.009 254.998C786.962 254.718 787.102 254.484 787.382 254.438C791.815 253.458 796.76 254.158 801.333 256.491C801.566 256.631 801.659 256.91 801.519 257.144C801.473 257.33 801.286 257.424 801.099 257.424Z" fill="#534A4A"/>
<path d="M812.064 269.601C811.55 269.601 810.991 269.414 810.617 268.994C809.824 268.201 809.824 266.895 810.617 266.102L814.163 262.556C814.956 261.763 816.263 261.763 817.056 262.556C817.849 263.349 817.849 264.655 817.056 265.449L813.51 268.994C813.137 269.414 812.624 269.601 812.064 269.601ZM815.61 262.929C815.33 262.929 815.05 263.022 814.816 263.256L811.271 266.802C810.851 267.222 810.851 267.921 811.271 268.341C811.69 268.761 812.39 268.761 812.81 268.341L816.356 264.795C816.776 264.375 816.776 263.676 816.356 263.256C816.17 263.022 815.89 262.929 815.61 262.929Z" fill="#534A4A"/>
<path d="M817.476 271.001C816.683 271.001 815.843 270.674 815.236 270.068L813.51 268.342C813.323 268.155 813.323 267.828 813.51 267.642C813.697 267.455 814.023 267.455 814.21 267.642L815.936 269.368C816.823 270.254 818.222 270.208 819.062 269.368L820.135 268.295C820.462 267.968 820.462 267.455 820.135 267.128C819.809 266.802 819.296 266.802 818.969 267.128L818.129 268.015C817.943 268.202 817.616 268.202 817.429 268.015L815.61 266.195C815.423 266.009 815.423 265.682 815.61 265.495C815.796 265.309 816.123 265.309 816.31 265.495L817.756 266.942L818.269 266.429C818.596 266.102 819.062 265.915 819.529 265.915C819.995 265.915 820.462 266.102 820.789 266.429C821.488 267.128 821.488 268.248 820.789 268.948L819.762 270.068C819.109 270.674 818.316 271.001 817.476 271.001Z" fill="#534A4A"/>
<path d="M797.833 263.722C797.74 263.722 797.6 263.675 797.507 263.582C797.32 263.395 797.273 263.115 797.46 262.929C799.839 260.223 801.846 257.843 804.738 255.604C808.004 253.037 811.317 251.544 814.676 251.171C818.642 250.751 822.468 252.011 824.894 254.624C825.081 254.81 825.081 255.137 824.848 255.324C824.661 255.51 824.334 255.51 824.148 255.277C821.955 252.944 818.362 251.731 814.723 252.151C811.597 252.524 808.424 253.924 805.298 256.397C802.499 258.59 800.493 260.922 798.16 263.629C798.113 263.675 797.973 263.722 797.833 263.722Z" fill="#534A4A"/>
<path d="M800.632 266.428C800.539 266.428 800.399 266.382 800.306 266.335C800.119 266.148 800.072 265.869 800.259 265.682C802.359 263.209 804.551 260.643 807.211 258.683C812.576 254.718 818.922 253.178 824.614 254.484C824.894 254.531 825.034 254.811 824.987 255.044C824.94 255.324 824.661 255.464 824.427 255.417C819.108 254.204 812.903 255.744 807.817 259.477C805.205 261.389 803.105 263.909 801.005 266.335C800.912 266.382 800.772 266.428 800.632 266.428Z" fill="#534A4A"/>
<path d="M799.933 269.601C799.42 269.601 798.86 269.414 798.487 268.994L794.941 265.449C794.148 264.655 794.148 263.349 794.941 262.556C795.734 261.763 797.04 261.763 797.834 262.556L801.379 266.102C802.173 266.895 802.173 268.201 801.379 268.994C800.96 269.414 800.446 269.601 799.933 269.601ZM796.387 262.929C796.107 262.929 795.827 263.022 795.594 263.256C795.174 263.676 795.174 264.375 795.594 264.795L799.14 268.341C799.56 268.761 800.26 268.761 800.68 268.341C800.866 268.155 801.006 267.875 801.006 267.548C801.006 267.268 800.913 266.988 800.68 266.755L797.134 263.209C796.947 263.022 796.667 262.929 796.387 262.929Z" fill="#534A4A"/>
<path d="M794.52 271.001C793.727 271.001 792.887 270.675 792.281 270.068L791.208 268.995C790.835 268.668 790.648 268.202 790.648 267.735C790.648 267.269 790.835 266.802 791.161 266.475C791.488 266.149 791.954 265.962 792.421 265.962C792.887 265.962 793.354 266.149 793.681 266.475L794.194 266.989L795.64 265.542C795.827 265.356 796.153 265.356 796.34 265.542C796.527 265.729 796.527 266.056 796.34 266.242L794.52 268.062C794.334 268.248 794.007 268.248 793.821 268.062L792.981 267.222C792.654 266.895 792.141 266.895 791.814 267.222C791.674 267.362 791.581 267.595 791.581 267.782C791.581 268.015 791.674 268.202 791.814 268.342L792.887 269.415C793.774 270.301 795.174 270.301 796.014 269.415L797.74 267.689C797.926 267.502 798.253 267.502 798.44 267.689C798.626 267.875 798.626 268.202 798.44 268.388L796.76 270.068C796.107 270.675 795.314 271.001 794.52 271.001Z" fill="#534A4A"/>
<path d="M857.848 255.708C855.64 255.708 854.12 254.62 853.528 252.956L855.112 252.028C855.512 253.164 856.376 253.916 857.896 253.916C859.352 253.916 859.976 253.26 859.976 252.444C859.976 251.452 859.096 251.116 857.432 250.604C855.688 250.076 853.992 249.436 853.992 247.324C853.992 245.26 855.704 244.092 857.592 244.092C859.432 244.092 860.792 245.068 861.496 246.556L859.944 247.452C859.544 246.556 858.84 245.884 857.592 245.884C856.52 245.884 855.832 246.428 855.832 247.276C855.832 248.14 856.456 248.508 858.088 249.02C859.944 249.612 861.816 250.188 861.816 252.412C861.816 254.46 860.184 255.708 857.848 255.708ZM864.788 252.236C865.06 253.484 866.068 254.124 867.348 254.124C868.308 254.124 869.028 253.692 869.412 253.132L870.836 253.964C870.1 255.052 868.9 255.708 867.332 255.708C864.692 255.708 862.98 253.9 862.98 251.5C862.98 249.132 864.692 247.292 867.204 247.292C869.588 247.292 871.22 249.212 871.22 251.516C871.22 251.756 871.188 252.012 871.156 252.236H864.788ZM864.772 250.828H869.476C869.236 249.452 868.228 248.86 867.188 248.86C865.892 248.86 865.012 249.628 864.772 250.828ZM876.39 255.708C873.974 255.708 872.166 253.868 872.166 251.5C872.166 249.116 873.974 247.292 876.39 247.292C877.958 247.292 879.318 248.108 879.958 249.356L878.47 250.22C878.118 249.468 877.334 248.988 876.374 248.988C874.966 248.988 873.894 250.06 873.894 251.5C873.894 252.94 874.966 254.012 876.374 254.012C877.334 254.012 878.118 253.516 878.502 252.78L879.99 253.628C879.318 254.892 877.958 255.708 876.39 255.708ZM886.598 247.5H888.326V255.5H886.598V254.476C886.07 255.308 885.206 255.708 884.118 255.708C882.326 255.708 881.046 254.492 881.046 252.412V247.5H882.774V252.236C882.774 253.452 883.478 254.092 884.566 254.092C885.702 254.092 886.598 253.42 886.598 251.788V247.5ZM891.994 248.844C892.474 247.756 893.45 247.356 894.458 247.356V249.228C893.322 249.148 891.994 249.676 891.994 251.468V255.5H890.266V247.5H891.994V248.844ZM896.64 252.236C896.912 253.484 897.92 254.124 899.2 254.124C900.16 254.124 900.88 253.692 901.264 253.132L902.688 253.964C901.952 255.052 900.752 255.708 899.184 255.708C896.544 255.708 894.832 253.9 894.832 251.5C894.832 249.132 896.544 247.292 899.056 247.292C901.44 247.292 903.072 249.212 903.072 251.516C903.072 251.756 903.04 252.012 903.008 252.236H896.64ZM896.624 250.828H901.328C901.088 249.452 900.08 248.86 899.04 248.86C897.744 248.86 896.864 249.628 896.624 250.828ZM912.896 249.164H910.912V253.004C910.912 254.028 911.584 254.012 912.896 253.948V255.5C910.24 255.82 909.184 255.084 909.184 253.004V249.164H907.712V247.5H909.184V245.772L910.912 245.26V247.5H912.896V249.164ZM915.248 246.3C914.64 246.3 914.144 245.788 914.144 245.196C914.144 244.588 914.64 244.092 915.248 244.092C915.856 244.092 916.352 244.588 916.352 245.196C916.352 245.788 915.856 246.3 915.248 246.3ZM914.384 255.5V247.5H916.112V255.5H914.384ZM921.814 255.708C919.398 255.708 917.59 253.868 917.59 251.5C917.59 249.116 919.398 247.292 921.814 247.292C923.382 247.292 924.742 248.108 925.382 249.356L923.894 250.22C923.542 249.468 922.758 248.988 921.798 248.988C920.39 248.988 919.318 250.06 919.318 251.5C919.318 252.94 920.39 254.012 921.798 254.012C922.758 254.012 923.542 253.516 923.926 252.78L925.414 253.628C924.742 254.892 923.382 255.708 921.814 255.708ZM933.655 255.5H931.591L928.311 251.804V255.5H926.583V244.3H928.311V251.036L931.415 247.5H933.527L930.007 251.42L933.655 255.5ZM935.457 252.236C935.729 253.484 936.737 254.124 938.017 254.124C938.977 254.124 939.697 253.692 940.081 253.132L941.505 253.964C940.769 255.052 939.569 255.708 938.001 255.708C935.361 255.708 933.649 253.9 933.649 251.5C933.649 249.132 935.361 247.292 937.873 247.292C940.257 247.292 941.889 249.212 941.889 251.516C941.889 251.756 941.857 252.012 941.825 252.236H935.457ZM935.441 250.828H940.145C939.905 249.452 938.897 248.86 937.857 248.86C936.561 248.86 935.681 249.628 935.441 250.828ZM947.543 249.164H945.559V253.004C945.559 254.028 946.231 254.012 947.543 253.948V255.5C944.887 255.82 943.831 255.084 943.831 253.004V249.164H942.359V247.5H943.831V245.772L945.559 245.26V247.5H947.543V249.164ZM858.536 269.292C860.712 269.292 862.52 271.132 862.52 273.5C862.52 275.884 860.712 277.708 858.536 277.708C857.288 277.708 856.344 277.196 855.736 276.364V280.7H854.008V269.5H855.736V270.652C856.344 269.804 857.288 269.292 858.536 269.292ZM858.264 276.06C859.704 276.06 860.792 274.988 860.792 273.5C860.792 272.012 859.704 270.94 858.264 270.94C856.824 270.94 855.736 272.012 855.736 273.5C855.736 274.988 856.824 276.06 858.264 276.06ZM865.734 270.844C866.214 269.756 867.19 269.356 868.198 269.356V271.228C867.062 271.148 865.734 271.676 865.734 273.468V277.5H864.006V269.5H865.734V270.844ZM872.796 277.708C870.46 277.708 868.572 275.868 868.572 273.5C868.572 271.116 870.46 269.292 872.796 269.292C875.148 269.292 877.02 271.116 877.02 273.5C877.02 275.868 875.148 277.708 872.796 277.708ZM872.796 276.028C874.204 276.028 875.292 274.956 875.292 273.5C875.292 272.044 874.204 270.972 872.796 270.972C871.388 270.972 870.3 272.044 870.3 273.5C870.3 274.956 871.388 276.028 872.796 276.028ZM882.81 271.164H880.826V275.004C880.826 276.028 881.498 276.012 882.81 275.948V277.5C880.154 277.82 879.098 277.084 879.098 275.004V271.164H877.626V269.5H879.098V267.772L880.826 267.26V269.5H882.81V271.164ZM885.329 274.236C885.601 275.484 886.609 276.124 887.889 276.124C888.849 276.124 889.569 275.692 889.953 275.132L891.377 275.964C890.641 277.052 889.441 277.708 887.873 277.708C885.233 277.708 883.521 275.9 883.521 273.5C883.521 271.132 885.233 269.292 887.745 269.292C890.129 269.292 891.761 271.212 891.761 273.516C891.761 273.756 891.729 274.012 891.697 274.236H885.329ZM885.313 272.828H890.017C889.777 271.452 888.769 270.86 887.729 270.86C886.433 270.86 885.553 271.628 885.313 272.828ZM896.931 277.708C894.515 277.708 892.707 275.868 892.707 273.5C892.707 271.116 894.515 269.292 896.931 269.292C898.499 269.292 899.859 270.108 900.499 271.356L899.011 272.22C898.659 271.468 897.875 270.988 896.915 270.988C895.507 270.988 894.435 272.06 894.435 273.5C894.435 274.94 895.507 276.012 896.915 276.012C897.875 276.012 898.659 275.516 899.043 274.78L900.531 275.628C899.859 276.892 898.499 277.708 896.931 277.708ZM906.164 271.164H904.18V275.004C904.18 276.028 904.852 276.012 906.164 275.948V277.5C903.508 277.82 902.452 277.084 902.452 275.004V271.164H900.98V269.5H902.452V267.772L904.18 267.26V269.5H906.164V271.164ZM908.515 268.3C907.907 268.3 907.411 267.788 907.411 267.196C907.411 266.588 907.907 266.092 908.515 266.092C909.123 266.092 909.619 266.588 909.619 267.196C909.619 267.788 909.123 268.3 908.515 268.3ZM907.651 277.5V269.5H909.379V277.5H907.651ZM915.082 277.708C912.746 277.708 910.858 275.868 910.858 273.5C910.858 271.116 912.746 269.292 915.082 269.292C917.434 269.292 919.306 271.116 919.306 273.5C919.306 275.868 917.434 277.708 915.082 277.708ZM915.082 276.028C916.49 276.028 917.578 274.956 917.578 273.5C917.578 272.044 916.49 270.972 915.082 270.972C913.674 270.972 912.586 272.044 912.586 273.5C912.586 274.956 913.674 276.028 915.082 276.028ZM924.996 269.292C926.788 269.292 928.068 270.508 928.068 272.588V277.5H926.34V272.764C926.34 271.548 925.636 270.908 924.548 270.908C923.412 270.908 922.516 271.58 922.516 273.212V277.5H920.788V269.5H922.516V270.524C923.044 269.692 923.908 269.292 924.996 269.292Z" fill="#3E3737"/>
</svg>
