<svg width="20" height="21" viewBox="0 0 20 21" fill="none" xmlns="http://www.w3.org/2000/svg">
<path d="M9.9792 16.953C6.32385 16.953 3.34818 13.9773 3.34818 10.322C3.34818 6.66663 6.32385 3.69096 9.9792 3.69096C13.6345 3.69096 16.6102 6.66663 16.6102 10.322C16.6102 13.9773 13.6345 16.953 9.9792 16.953ZM9.9792 2.0332C8.8907 2.0332 7.81286 2.2476 6.80722 2.66415C5.80158 3.0807 4.88784 3.69124 4.11815 4.46093C2.56371 6.01537 1.69043 8.12365 1.69043 10.322C1.69043 12.5203 2.56371 14.6286 4.11815 16.183C4.88784 16.9527 5.80158 17.5632 6.80722 17.9798C7.81286 18.3963 8.8907 18.6107 9.9792 18.6107C12.1775 18.6107 14.2858 17.7375 15.8402 16.183C17.3947 14.6286 18.268 12.5203 18.268 10.322C18.268 9.23348 18.0536 8.15564 17.637 7.15C17.2205 6.14436 16.6099 5.23061 15.8402 4.46093C15.0706 3.69124 14.1568 3.0807 13.1512 2.66415C12.1455 2.2476 11.0677 2.0332 9.9792 2.0332ZM8.32145 14.0519L13.2947 10.322L8.32145 6.59203V14.0519Z" fill="white"/>
</svg>
