<svg width="22" height="16" viewBox="0 0 22 16" fill="none" xmlns="http://www.w3.org/2000/svg">
<g clip-path="url(#clip0_325_20638)">
<mask id="mask0_325_20638" style="mask-type:luminance" maskUnits="userSpaceOnUse" x="0" y="0" width="22" height="16">
<path d="M0 0H21.3313V16H0V0Z" fill="white"/>
</mask>
<g mask="url(#mask0_325_20638)">
<path fill-rule="evenodd" clip-rule="evenodd" d="M-1.33398 0H22.666V16H-1.33398V0Z" fill="#199D00"/>
<path fill-rule="evenodd" clip-rule="evenodd" d="M4.7136 4.53396C4.6886 4.90896 4.6511 5.56521 4.97297 5.63396C5.35735 5.67146 5.14485 4.98396 5.28547 4.85896C5.31047 4.79646 5.35735 4.79646 5.36047 4.87459V5.45896C5.36047 5.64646 5.48547 5.70271 5.57922 5.74021C5.67922 5.73396 5.74797 5.74021 5.78547 5.83396L5.83547 6.84334C5.83547 6.84334 6.06672 6.91209 6.07922 6.27771C6.0886 5.90271 6.00422 5.59334 6.05422 5.52146C6.05422 5.44959 6.14797 5.44646 6.21047 5.48084C6.31047 5.54959 6.35422 5.63709 6.51047 5.60584C6.74797 5.53709 6.89172 5.42146 6.89485 5.24021C6.89016 5.06209 6.85309 4.88631 6.78547 4.72146C6.79797 4.69021 6.74172 4.60584 6.75422 4.57459C6.79485 4.64334 6.86047 4.63709 6.87297 4.57459C6.83235 4.44334 6.76985 4.31521 6.66985 4.26209C6.58547 4.18709 6.46047 4.19959 6.41985 4.35584C6.39485 4.53396 6.48235 4.74334 6.61047 4.91834C6.6386 4.98396 6.6761 5.09646 6.66047 5.19646C6.59172 5.23709 6.52297 5.21834 6.4636 5.15896C6.4636 5.15896 6.2761 5.01834 6.2761 4.98396C6.3261 4.66521 6.28547 4.62771 6.25735 4.53709C6.2386 4.41521 6.17922 4.37459 6.13235 4.29334C6.08547 4.24334 6.02297 4.24334 5.99172 4.29334C5.90735 4.43709 5.94797 4.74646 6.00735 4.88709C6.0511 5.01521 6.11672 5.09646 6.08547 5.09646C6.06047 5.16834 6.00735 5.14959 5.96672 5.06521C5.92099 4.88764 5.89892 4.70481 5.9011 4.52146C5.88547 4.37771 5.86672 4.07146 5.76985 3.99021C5.7136 3.91521 5.62922 3.95271 5.59797 4.02146C5.58972 4.16107 5.59285 4.30112 5.60735 4.44021C5.66985 4.67146 5.69172 4.87771 5.72297 5.11209C5.73235 5.42771 5.54172 5.24959 5.5511 5.09021C5.59209 4.88985 5.58889 4.68296 5.54172 4.48396C5.51047 4.40271 5.4761 4.38396 5.39797 4.39646C5.3386 4.39646 5.18547 4.56209 5.14172 4.84334C5.14172 4.84334 5.10422 4.98709 5.0886 5.11521C5.06672 5.25896 4.97297 5.36521 4.90422 5.09646C4.84797 4.89959 4.81047 4.42146 4.71672 4.53396H4.7136Z" fill="white"/>
<path fill-rule="evenodd" clip-rule="evenodd" d="M5.76074 6.06831L4.76074 6.54956C4.77012 6.32144 5.23262 5.91206 5.55137 5.90894C5.75449 5.91206 5.70449 5.98706 5.75762 6.06831H5.76074Z" fill="white"/>
<path fill-rule="evenodd" clip-rule="evenodd" d="M5.58149 6.38078C5.05649 7.74015 6.81587 7.93078 7.01274 6.43703C7.03149 6.37453 7.10649 6.31515 7.11899 6.41515C7.07837 7.76828 5.75649 7.8589 5.53149 7.4339C5.47856 7.28767 5.4521 7.13317 5.45337 6.97765C5.42212 6.71203 5.28149 6.81515 5.25962 7.07765C5.23774 7.22453 5.24399 7.26515 5.24399 7.40578C5.31274 8.47453 7.01587 8.01515 7.29399 7.1339C7.44087 6.6464 7.26899 6.28703 7.34712 6.28703C7.51587 6.46828 7.75337 6.31203 7.80649 6.24953C7.82837 6.21828 7.88462 6.1964 7.92212 6.23703C8.05337 6.33078 8.28462 6.28703 8.33462 6.1214C8.36274 5.95578 8.38462 5.78703 8.39087 5.61515C8.28149 5.6464 8.20337 5.66828 8.19399 5.71515L8.17212 5.8589C8.16274 5.90578 8.07212 5.90578 8.06587 5.8464C8.02524 5.6589 7.85649 5.63703 7.75337 5.92453C7.68774 5.98078 7.56274 5.99328 7.55024 5.9089C7.56587 5.71515 7.48774 5.69015 7.33149 5.78078L7.18149 4.64953C7.24399 4.64953 7.30649 4.6964 7.36587 4.6214C7.30337 4.41828 7.16274 4.00578 7.08462 3.97453C7.05024 3.93078 7.01899 3.9589 6.96899 3.9714C6.88774 3.9964 6.81274 4.06515 6.83774 4.20265C6.93149 4.79015 6.99399 5.23703 7.09087 5.82765C7.10649 5.89328 7.05024 5.9839 6.97524 5.97453C6.85024 5.89015 6.81899 5.71828 6.60024 5.72453C6.44399 5.72453 6.26899 5.8964 6.24712 6.0589C6.21899 6.19015 6.20962 6.33078 6.24712 6.44328C6.35649 6.57453 6.48774 6.56203 6.60337 6.5339C6.69712 6.49328 6.77524 6.39953 6.80962 6.4214C6.83149 6.44953 6.81274 6.76203 6.36274 6.99953C6.09087 7.12453 5.87212 7.14953 5.75649 6.92765C5.68462 6.78703 5.76274 6.2589 5.58149 6.38078Z" fill="white"/>
<path fill-rule="evenodd" clip-rule="evenodd" d="M7.82253 4.99949C7.92566 4.96199 8.42566 4.38699 8.42566 4.38699L8.35066 4.32449C8.32253 4.30261 8.32565 4.27761 8.35066 4.25574C8.47566 4.18074 8.43503 4.02449 8.37253 3.94949C8.3301 3.92881 8.28342 3.91832 8.23622 3.91886C8.18902 3.9194 8.1426 3.93096 8.10066 3.95261C8.01315 4.03699 7.99441 4.17136 8.06316 4.25261C8.12878 4.28386 8.19441 4.35261 8.15066 4.39011C7.94441 4.60886 7.38503 4.98699 7.45066 4.99949C7.46316 5.01824 7.81003 5.01824 7.81941 4.99949H7.82253ZM4.79128 7.03074C4.60378 7.33074 4.58816 7.77761 4.69128 7.91199C4.74753 7.97449 4.83816 8.00261 4.90378 7.98074C5.02253 7.93074 5.07566 7.69011 5.04753 7.60574C5.00691 7.54324 4.97566 7.53386 4.93503 7.58386C4.85378 7.75261 4.81941 7.63699 4.81003 7.54324C4.80107 7.38447 4.80946 7.22519 4.83503 7.06824C4.85691 6.93699 4.83503 6.97449 4.79128 7.03074ZM12.8257 6.55261C12.6444 6.15886 12.3913 5.77136 12.3132 5.62449C12.0696 5.2395 11.8111 4.86421 11.5382 4.49949C11.3444 4.26824 11.8569 4.59636 11.4757 4.13386L11.1975 3.89949C11.135 3.85574 10.985 3.77449 10.96 3.90574C10.9475 4.02449 10.9538 4.08699 10.9725 4.18386C10.9882 4.24636 11.0819 4.35574 11.1288 4.41824C11.7694 5.26682 12.3321 6.17154 12.81 7.12136C12.8913 7.08074 12.8725 6.61824 12.8257 6.55261Z" fill="white"/>
<path fill-rule="evenodd" clip-rule="evenodd" d="M12.0287 7.85899C11.9912 7.89961 12.1162 8.07149 12.2787 8.07149C12.5474 8.04024 12.7849 7.89024 13.0037 7.49024C13.0926 7.35717 13.1493 7.20525 13.1693 7.04649C13.1958 6.28787 13.1349 5.52872 12.988 4.78399C12.9787 4.72149 12.988 4.64649 12.9943 4.62774C13.013 4.60586 13.0724 4.62774 13.1037 4.57461C13.1505 4.52774 12.9787 4.13711 12.8849 3.99024C12.8537 3.92149 12.838 3.87774 12.7818 3.99649C12.7139 4.12752 12.6816 4.27406 12.688 4.42149C12.8162 5.31211 12.8568 6.09024 12.938 6.98086C12.9474 7.06836 12.9349 7.19336 12.8755 7.24336C12.6397 7.5059 12.3512 7.71569 12.0287 7.85899ZM15.6693 7.85586C15.4755 7.96836 15.4755 8.09649 15.6318 8.09961C15.9005 8.06836 16.2193 8.04649 16.438 7.71524C16.5153 7.55922 16.56 7.38909 16.5693 7.21524C16.6086 6.4683 16.5593 5.71933 16.4224 4.98399C16.4162 4.92149 16.388 4.77461 16.3974 4.75586C16.4162 4.71211 16.5037 4.75899 16.5349 4.70899C16.5787 4.66211 16.3068 4.31211 16.2099 4.16211C16.1787 4.09336 16.1662 4.04961 16.1068 4.16836C16.0439 4.3006 16.0242 4.4493 16.0505 4.59336C16.1943 5.56211 16.3005 6.28711 16.3224 7.14336C16.3099 7.22461 16.3068 7.26836 16.2693 7.37149C16.1849 7.47774 16.0912 7.61524 16.0037 7.68086C15.9162 7.74336 15.7287 7.80586 15.6693 7.85586Z" fill="white"/>
<path fill-rule="evenodd" clip-rule="evenodd" d="M15.8129 6.99C15.8129 6.76187 15.816 6.56812 15.8098 6.39625C15.8077 6.25068 15.7758 6.10709 15.716 5.97437C15.6598 5.84625 15.6941 5.74312 15.666 5.60562C15.641 5.46812 15.6473 5.26187 15.6098 5.1025C15.5973 5.04 15.566 4.83687 15.5754 4.815C15.591 4.77125 15.6504 4.815 15.6816 4.765C15.7254 4.71812 15.5254 4.2025 15.4254 4.05562C15.391 3.99 15.3223 4.01187 15.2441 4.11812C15.166 4.19 15.1941 4.34937 15.2254 4.5025C15.416 5.51187 15.5629 6.4275 15.5316 7.38687C15.5191 7.46812 15.8129 7.14312 15.8129 6.99ZM14.3848 5.74C14.2629 5.73375 14.0098 5.49937 13.9348 5.365C13.9225 5.33215 13.9173 5.2971 13.9194 5.2621C13.9216 5.22711 13.9311 5.19296 13.9473 5.16187C13.9941 5.13062 14.0629 5.09937 14.116 5.13062C14.116 5.13062 14.1691 5.20562 14.1598 5.21499C14.2223 5.24624 14.2535 5.23062 14.2598 5.2025C14.2629 5.15562 14.241 5.1275 14.241 5.0775C14.2691 4.93375 14.4285 4.91187 14.491 5.0025C14.5348 5.05875 14.5535 5.17437 14.5566 5.2525C14.5566 5.29312 14.4941 5.24625 14.4535 5.2525C14.4191 5.265 14.4098 5.30875 14.4066 5.34625C14.4004 5.44937 14.3879 5.615 14.3848 5.73687V5.74ZM12.141 7.24C12.1723 6.93375 12.1285 6.38687 12.1254 6.20562C12.1087 5.73948 12.0701 5.27439 12.0098 4.81187C11.9723 4.54937 12.116 4.84 12.0973 4.68687C12.0504 4.42749 11.9066 4.24937 11.7348 4.01499C11.6816 3.93687 11.6816 3.92125 11.5973 4.03375C11.5035 4.24312 11.5848 4.39 11.6098 4.55562C11.7316 5.09312 11.8035 5.58687 11.8379 6.0775C11.8739 6.58716 11.878 7.09856 11.8504 7.60875C11.9441 7.61187 12.0879 7.46187 12.141 7.24Z" fill="white"/>
<path fill-rule="evenodd" clip-rule="evenodd" d="M16.2285 6.7495C16.0129 6.387 15.691 5.9995 15.6035 5.85263C15.3137 5.44796 15.0094 5.05395 14.691 4.67138C14.4254 4.39013 14.816 4.6245 14.641 4.40575C14.4941 4.24638 14.4535 4.19325 14.3254 4.09638C14.2629 4.05575 14.2254 3.97763 14.2004 4.112C14.1904 4.22839 14.1883 4.34533 14.1941 4.462C14.1941 4.51513 14.2504 4.61825 14.3004 4.68075C14.9472 5.47763 15.6566 6.29013 16.2254 7.312C16.3066 7.27138 16.2785 6.812 16.2254 6.7495H16.2285Z" fill="white"/>
<path fill-rule="evenodd" clip-rule="evenodd" d="M6.49819 6.08442C6.48257 6.11254 6.44819 6.14692 6.46069 6.18129C6.48257 6.21254 6.50444 6.22192 6.54194 6.22192C6.57632 6.22192 6.62632 6.23129 6.63569 6.21254C6.65444 6.19067 6.66694 6.15004 6.65444 6.10942C6.61694 6.01567 6.51694 6.05317 6.49819 6.08442Z" fill="#1BA400"/>
<path fill-rule="evenodd" clip-rule="evenodd" d="M13.7354 11.328C14.0229 11.3405 14.2104 11.3436 14.4636 11.3717L14.7636 11.3405C15.0948 11.3092 15.1073 11.8124 15.1073 11.8124C15.1073 12.1092 14.9917 12.1249 14.8448 12.1561C14.7604 12.1686 14.7198 12.1061 14.6729 12.0436C14.6023 12.0663 14.527 12.0706 14.4542 12.0561C14.3323 12.0499 14.2136 12.0499 14.0948 12.0405C13.9698 12.0311 13.9011 12.0561 13.7729 12.0436C13.7479 12.0842 13.7104 12.1405 13.6354 12.1249C13.5729 12.1155 13.4948 11.9374 13.5167 11.7967C13.5636 11.6967 13.5479 11.7311 13.5479 11.6874C12.3729 11.6561 11.1886 11.603 10.0386 11.6186C9.13857 11.6217 8.25107 11.6592 7.36045 11.6967C6.88545 11.6905 6.52295 11.6155 6.27295 11.2499C6.29795 11.2499 7.48545 11.3155 7.83232 11.2936C8.47295 11.2874 9.06045 11.2342 9.71357 11.2155C11.0011 11.2374 12.2792 11.2374 13.5667 11.328C13.4417 11.2436 13.4417 11.0467 13.6292 10.9967C13.6448 10.9842 13.6542 11.0936 13.6823 11.0905C13.8354 11.0811 13.7667 11.2874 13.7354 11.328ZM8.56045 4.22799C8.3667 4.78424 8.67295 5.39674 8.88545 5.33737C9.0417 5.39987 9.13545 5.10612 9.19795 4.78737C9.24482 4.69674 9.27607 4.68737 9.29795 4.73424C9.2917 5.15924 9.3292 5.25612 9.43857 5.38424C9.68232 5.57174 9.88545 5.40924 9.90107 5.39362L10.0886 5.20299C10.1323 5.15612 10.1886 5.15612 10.2479 5.19362C10.3073 5.24674 10.2979 5.33737 10.4229 5.39987C10.5292 5.44362 10.7511 5.41237 10.8042 5.32174C10.8729 5.19987 10.8917 5.15924 10.9229 5.11549C10.9729 5.04987 11.0573 5.07799 11.0573 5.09987C11.0479 5.13737 10.9979 5.17174 11.0323 5.24049C11.0948 5.28424 11.1073 5.25612 11.1417 5.24674C11.2667 5.18424 11.3604 4.91549 11.3604 4.91549C11.3636 4.81549 11.3073 4.82174 11.2698 4.84674L11.1729 4.91237C11.1104 4.92174 10.9948 4.96237 10.9354 4.87174C10.8761 4.76549 10.8761 4.61237 10.8323 4.50299C10.8323 4.49674 10.7511 4.33112 10.8261 4.32174C10.8636 4.32799 10.9417 4.34987 10.9542 4.28424C10.9917 4.21862 10.8729 4.03424 10.7886 3.94049C10.7167 3.86237 10.6167 3.85299 10.5198 3.93424C10.4511 3.99674 10.4604 4.06549 10.4479 4.13112C10.4361 4.17814 10.4356 4.22732 10.4464 4.27458C10.4573 4.32185 10.4792 4.36586 10.5104 4.40299C10.5792 4.53424 10.7011 4.70612 10.6604 4.94987C10.6604 4.94987 10.5886 5.06237 10.4636 5.04674C10.4104 5.03737 10.3261 5.01549 10.2823 4.67799C10.2479 4.42799 10.2886 4.07174 10.1823 3.90612C10.1417 3.80299 10.1136 3.70612 10.0198 3.87799C9.99482 3.94674 9.88545 4.04987 9.96357 4.25924C10.0375 4.44792 10.0591 4.65306 10.0261 4.85299C9.9792 4.92174 9.96982 4.94362 9.91045 5.00924C9.8292 5.10299 9.73857 5.07799 9.66982 5.04362C9.60732 5.00299 9.55732 4.98112 9.52607 4.84049C9.53232 4.62174 9.54482 4.26237 9.5042 4.18737C9.44482 4.06862 9.34795 4.11237 9.30732 4.14987C9.12143 4.35638 8.99695 4.61074 8.94795 4.88424C8.8917 5.06549 8.83232 5.01237 8.7917 4.94049C8.6917 4.84674 8.68232 4.10612 8.56045 4.22799Z" fill="white"/>
<path fill-rule="evenodd" clip-rule="evenodd" d="M9.14737 5.44047C9.23799 5.37797 9.19737 5.33422 9.32862 5.46547C9.49803 5.76522 9.59639 6.09985 9.61612 6.4436C9.60987 6.52485 9.66612 6.57485 9.69424 6.5561C9.70674 6.3686 10.1661 6.1061 10.588 6.0686C10.6505 6.05297 10.6192 5.9311 10.6286 5.8686C10.6036 5.63422 10.7599 5.42172 10.9786 5.4061C11.2786 5.44985 11.3786 5.60922 11.3849 5.84985C11.3505 6.3186 10.863 6.39672 10.5911 6.43422C10.5505 6.44985 10.5317 6.4686 10.5911 6.49047L11.7349 6.49672L11.7942 6.52797C11.8005 6.55922 11.7755 6.53422 11.7317 6.60922C11.6688 6.71975 11.6295 6.84211 11.6161 6.9686C11.2755 7.0811 10.9224 7.12485 10.5661 7.17172C10.4411 7.23422 10.3786 7.3186 10.4036 7.41235C10.4474 7.51547 10.7224 7.62172 10.7224 7.62485C10.7755 7.6561 10.8349 7.73422 10.7067 7.8936C10.1505 7.8686 9.71612 7.6311 9.56612 7.29672C9.52237 7.26235 9.47237 7.29672 9.44112 7.34047C9.22237 7.62172 9.00987 7.87172 8.63799 8.00922C8.41924 8.06547 8.19112 7.97485 8.08487 7.8311C8.01299 7.74672 8.01612 7.6561 7.99112 7.63735C7.86924 7.69047 6.83799 8.12797 6.96924 7.92172C7.21924 7.6561 7.65674 7.4561 8.03799 7.1936C8.06612 7.10297 8.11612 6.80297 8.26612 6.7061C8.27549 6.7061 8.24424 6.8811 8.24737 6.9561C8.24737 7.0186 8.24112 7.04047 8.25362 7.02485C8.28174 7.00922 8.74424 6.6436 8.78487 6.5311C8.82862 6.4686 8.79424 6.3061 8.79424 6.29985C8.70674 6.07485 8.58487 6.0561 8.54112 5.9436C8.50049 5.79672 8.51924 5.62797 8.60362 5.57797C8.67862 5.51235 8.76612 5.5186 8.85049 5.5936C8.94424 5.67797 9.02549 5.8436 9.05049 5.96547C9.03487 6.01235 8.92549 5.93422 8.89424 5.9561C8.95439 6.02522 8.99439 6.10954 9.00987 6.19985C9.07237 6.4561 9.05362 6.5561 8.99112 6.72172C8.78487 7.1561 8.52237 7.28422 8.29112 7.44672C8.28487 7.44672 8.28174 7.5561 8.36612 7.61547C8.39737 7.64672 8.51924 7.66235 8.65987 7.61547C8.9603 7.44863 9.20323 7.1948 9.35674 6.88735C9.3833 6.65339 9.35768 6.41647 9.28174 6.1936C9.19112 5.98422 9.08487 5.68735 9.08487 5.6811C9.08174 5.54985 9.09112 5.5061 9.14737 5.44047ZM6.15362 4.23422C6.28487 4.29672 6.53487 4.2686 6.52237 4.0561L6.51612 3.95922C6.49112 3.89672 6.41612 3.91235 6.40049 3.97485C6.39424 3.99672 6.40987 4.0311 6.39112 4.04047C6.37862 4.05297 6.33799 4.04672 6.33799 3.98735C6.33799 3.9686 6.32549 3.94985 6.31612 3.93735C6.30987 3.9311 6.30362 3.9311 6.28799 3.9311C6.26924 3.9311 6.26924 3.93422 6.25987 3.94985C6.25674 3.96547 6.25049 3.9811 6.25049 3.99985C6.25049 4.02172 6.23799 4.02797 6.22549 4.0311C6.20674 4.0311 6.20987 4.0311 6.19424 4.02485C6.18799 4.01547 6.17862 4.01235 6.17862 3.9936L6.16924 3.9436C6.16299 3.93422 6.15049 3.92797 6.13799 3.92485C6.06612 3.92485 6.05987 4.00922 6.06612 4.04047C6.05987 4.04672 6.05674 4.1936 6.15362 4.23422Z" fill="white"/>
<path fill-rule="evenodd" clip-rule="evenodd" d="M10.0126 5.8656C10.1439 5.9281 10.4595 5.89372 10.3814 5.6906L10.3751 5.5906C10.347 5.5281 10.2751 5.54372 10.2595 5.60935C10.2532 5.6281 10.2689 5.66247 10.247 5.67185C10.2376 5.68435 10.1939 5.6781 10.197 5.62185C10.197 5.6031 10.1845 5.58122 10.1751 5.56872C10.1657 5.5656 10.1626 5.56247 10.1439 5.56247C10.1282 5.56247 10.1282 5.56872 10.1189 5.58435C10.1126 5.59997 10.1095 5.6156 10.1095 5.63435C10.1064 5.6531 10.097 5.65935 10.0814 5.6656C10.0657 5.6656 10.0689 5.6656 10.0564 5.65622C10.047 5.64685 10.0376 5.64372 10.0376 5.6281L10.0282 5.5781C10.022 5.56872 10.0095 5.56247 9.99699 5.55935C9.92511 5.55935 9.91886 5.6406 9.92199 5.67185C9.91886 5.6781 9.91574 5.8281 10.0157 5.8656H10.0126ZM12.2626 5.1906C12.3939 5.2531 12.6407 5.22497 12.6314 5.0156L12.6251 4.9156C12.597 4.8531 12.5251 4.86872 12.5095 4.93122C12.5032 4.9531 12.5189 4.98747 12.497 4.99997C12.4876 5.00935 12.4439 5.0031 12.447 4.94372C12.447 4.92497 12.4345 4.90622 12.4251 4.89372C12.4157 4.88747 12.4126 4.88747 12.3939 4.88747C12.3782 4.88747 12.3782 4.89372 12.3689 4.90935L12.3595 4.95622C12.3564 4.9781 12.347 4.98747 12.3314 4.98747C12.3157 4.98747 12.3189 4.98747 12.3064 4.98122C12.297 4.97185 12.2876 4.96872 12.2876 4.9531C12.2876 4.93747 12.2845 4.91247 12.2782 4.89997C12.272 4.8906 12.2595 4.88747 12.247 4.88435C12.1751 4.88435 12.1689 4.9656 12.172 4.99685C12.1689 5.0031 12.1657 5.14997 12.2657 5.1906H12.2626ZM13.4282 6.88747C13.2001 7.14685 13.3001 7.57497 13.3532 7.66872C13.4282 7.81872 13.4876 7.9156 13.6345 7.9906C13.7689 8.08747 13.8751 8.0281 13.9314 7.95935C14.0657 7.81872 14.0689 7.45935 14.1314 7.3906C14.1751 7.25935 14.2876 7.28122 14.3407 7.3406C14.3904 7.41115 14.4571 7.4681 14.5345 7.50622C14.6595 7.6156 14.8095 7.63747 14.9595 7.53747C15.0595 7.4781 15.1251 7.40622 15.1845 7.25935C15.247 7.08435 15.2157 6.27185 15.2001 5.7906L15.0689 5.11872C15.0689 5.11247 15.0532 4.79997 15.0376 4.7281C15.0376 4.69685 15.0282 4.68747 15.0595 4.6906C15.0939 4.72185 15.097 4.72185 15.122 4.73122C15.1532 4.73747 15.1845 4.6781 15.1626 4.6281L14.8501 4.04685C14.8251 4.02185 14.7907 3.99685 14.7501 4.0531C14.7261 4.0748 14.7071 4.10134 14.6941 4.13097C14.6812 4.1606 14.6747 4.19265 14.6751 4.22497C14.6845 4.36247 14.7064 4.5031 14.7157 4.6406L14.8407 5.34685C14.8814 5.84685 14.8907 6.25935 14.9314 6.76247C14.9251 6.97497 14.8595 7.15935 14.797 7.18747C14.797 7.18747 14.7032 7.2406 14.6407 7.18122C14.5939 7.16247 14.4095 6.87185 14.4095 6.87185C14.3157 6.78747 14.2532 6.80935 14.1876 6.87185C14.0001 7.0531 13.9189 7.38435 13.7907 7.6156C13.7595 7.66872 13.6657 7.70935 13.5657 7.61247C13.3095 7.25935 13.4595 6.75935 13.4282 6.88747ZM12.322 3.95935C12.4407 4.00622 12.522 4.24685 12.497 4.3656C12.472 4.50622 12.4095 4.66247 12.3657 4.64372C12.3157 4.62497 12.397 4.49997 12.3501 4.36872C12.3251 4.28122 12.1626 4.12497 12.1814 4.08122C12.1501 3.98435 12.2501 3.9406 12.322 3.95622V3.95935Z" fill="white"/>
<path fill-rule="evenodd" clip-rule="evenodd" d="M13.8099 7.03134C13.8318 6.74384 13.7912 6.56884 13.7849 6.40009C13.7787 6.23134 13.5943 4.94383 13.5568 4.81883C13.5099 4.57508 13.7349 4.78759 13.7099 4.64384C13.6318 4.46883 13.4412 4.20946 13.3818 4.05633C13.3443 3.99383 13.3599 3.93133 13.2787 4.04071C13.2087 4.23248 13.1841 4.43784 13.2068 4.64071C13.4006 5.65008 13.5974 6.48759 13.5662 7.44696C13.6599 7.44696 13.7631 7.23759 13.8099 7.03134ZM15.8224 4.36571C15.9318 4.41883 15.9943 4.71883 15.9818 4.80321C15.9599 4.95946 15.9037 5.12821 15.8631 5.10633C15.8162 5.08758 15.8724 4.87508 15.8506 4.80946C15.8256 4.71571 15.6787 4.54696 15.6943 4.49696C15.6631 4.39071 15.7568 4.34696 15.8224 4.36571ZM7.83182 6.48759C7.93494 6.52821 7.99744 6.74696 7.98807 6.80946C7.96307 6.92509 7.90994 7.05009 7.86932 7.03134C7.82869 7.01884 7.87869 6.86259 7.85994 6.81259C7.85057 6.69696 7.70682 6.63446 7.70994 6.58446C7.68494 6.49071 7.77244 6.47509 7.83494 6.48759H7.83182Z" fill="white"/>
<path fill-rule="evenodd" clip-rule="evenodd" d="M10.3197 6.8187C10.4509 6.82495 10.5165 6.9312 10.3947 6.97495C10.2697 7.01558 10.154 7.04995 10.1509 7.22495C10.1978 7.47495 10.0884 7.38745 10.0259 7.3562C9.95091 7.29995 9.73841 7.1687 9.70716 6.88745C9.70404 6.82183 9.75716 6.76245 9.84154 6.76245C9.96654 6.79683 10.154 6.79995 10.3197 6.8187Z" fill="#1B9D00"/>
<path fill-rule="evenodd" clip-rule="evenodd" d="M5.08467 3.88762C5.23467 3.93137 5.24405 4.15637 5.23467 4.222C5.2128 4.34075 5.15967 4.46887 5.12217 4.45325C5.07842 4.43762 5.12217 4.27512 5.1003 4.22512C5.07842 4.15637 4.9503 4.02512 4.9628 3.98762C4.93467 3.9095 5.0253 3.872 5.08467 3.88762ZM8.08155 4.93762C7.9628 5.00012 7.91905 5.18762 7.99092 5.30012C8.05967 5.39387 8.16592 5.3595 8.17842 5.3595C8.29405 5.372 8.3628 5.14387 8.3628 5.14387C8.3628 5.14387 8.36592 5.08137 8.23155 5.20325C8.17217 5.21262 8.16905 5.19075 8.15342 5.1595C8.13912 5.1 8.1446 5.03746 8.16905 4.98137C8.19092 4.92512 8.14717 4.90012 8.08155 4.93762ZM8.95655 3.80012C8.89405 3.84075 8.77842 3.96262 8.7753 4.10012C8.77217 4.17825 8.75655 4.17825 8.80655 4.22512C8.84717 4.28137 8.88155 4.27825 8.95655 4.23762C8.97523 4.22586 8.99127 4.21034 9.00365 4.19205C9.01602 4.17376 9.02446 4.15309 9.02842 4.13137C9.04717 4.04387 8.93467 4.17512 8.92217 4.07512C8.89717 3.98137 8.96905 3.94387 9.0378 3.85637C9.0378 3.79387 9.0378 3.75325 8.95342 3.80012H8.95655ZM9.65655 3.92512C9.629 4.03891 9.61226 4.15505 9.60655 4.272C9.5878 4.3595 9.7003 4.397 9.74717 4.2845C9.82217 4.08137 9.82217 3.99387 9.82842 3.9095C9.80655 3.77512 9.71592 3.77825 9.65655 3.92512ZM14.094 6.1845C14.1065 6.16887 14.719 5.7345 14.719 5.7345C14.7815 5.71262 14.7659 5.9595 14.7378 5.95637C14.5478 6.13944 14.3294 6.29037 14.0909 6.40325C14.0597 6.42512 14.0315 6.23762 14.0909 6.1845H14.094ZM14.6472 6.17825C14.7565 6.23137 14.8003 6.547 14.7878 6.63137C14.7878 6.80012 14.6847 6.93137 14.6409 6.91262C14.5972 6.89075 14.6472 6.70325 14.6253 6.63762C14.6003 6.54387 14.5097 6.372 14.5253 6.322C14.494 6.21575 14.5815 6.1595 14.6503 6.17825H14.6472ZM11.0222 7.5345C11.0729 7.47533 11.1318 7.42376 11.1972 7.38137C11.2597 7.35012 11.3159 7.40637 11.3128 7.40325C11.3222 7.46575 11.2753 7.51887 11.2909 7.60012C11.3034 7.63137 11.3128 7.66887 11.3722 7.65637C11.469 7.57825 11.5597 7.572 11.6534 7.56887C11.7315 7.572 11.7347 7.70012 11.6847 7.70012C11.5065 7.73762 11.4284 7.78762 11.3003 7.8345C11.2378 7.872 11.1878 7.82512 11.1878 7.822C11.1878 7.81887 11.1534 7.78762 11.1753 7.70637C11.1815 7.64387 11.1565 7.60637 11.1003 7.61262C11.0628 7.63762 11.0253 7.65012 11.0065 7.60325C10.9972 7.572 10.994 7.55325 11.0222 7.5345ZM15.2909 7.70325C15.3159 7.7345 15.3347 7.76575 15.2878 7.822L15.1722 7.922C15.1534 7.95325 15.1409 8.0095 15.2034 8.02512C15.3159 8.05637 15.5784 7.8845 15.5784 7.88137C15.6222 7.85012 15.6097 7.78762 15.6034 7.78762C15.5784 7.7595 15.5222 7.77825 15.4847 7.772C15.4659 7.772 15.4065 7.76575 15.4347 7.7095C15.4557 7.68188 15.4725 7.65135 15.4847 7.61887C15.5003 7.58137 15.4847 7.55637 15.4222 7.5345C15.3565 7.522 15.3284 7.52825 15.2565 7.5345C15.219 7.54075 15.2065 7.5595 15.1972 7.60637C15.2003 7.67825 15.244 7.67512 15.2909 7.70012V7.70325Z" fill="white"/>
<path fill-rule="evenodd" clip-rule="evenodd" d="M11.0438 5.92819C11.0282 5.95944 10.9719 5.95944 10.9188 5.92819C10.8657 5.89694 10.8344 5.84694 10.8532 5.81881C10.8719 5.79069 10.9251 5.79069 10.9782 5.81881C11.0313 5.84694 11.0594 5.90006 11.0438 5.92819ZM8.26255 4.25319C8.2313 4.26256 8.18755 4.23444 8.1688 4.19069C8.15005 4.14694 8.15943 4.10944 8.19068 4.10006C8.22193 4.09069 8.26255 4.12194 8.28443 4.16256C8.3063 4.20319 8.2938 4.24694 8.25942 4.25631L8.26255 4.25319Z" fill="#259F00"/>
<path fill-rule="evenodd" clip-rule="evenodd" d="M13.7666 11.7188C14.0604 11.7313 14.3354 11.7188 14.626 11.7344C14.6791 11.7813 14.6416 11.8906 14.6072 11.8844L14.3635 11.875C14.3604 11.7813 14.1229 11.7969 14.1291 11.8781C14.001 11.8938 13.8854 11.875 13.7541 11.8687C13.7166 11.8219 13.7229 11.7375 13.7666 11.7188Z" fill="#209000"/>
</g>
</g>
<defs>
<clipPath id="clip0_325_20638">
<rect width="21.3313" height="16" rx="2" fill="white"/>
</clipPath>
</defs>
</svg>
