<svg width="16" height="16" viewBox="0 0 16 16" fill="none" xmlns="http://www.w3.org/2000/svg">
<path d="M8 4.401C7.60444 4.401 7.21776 4.5183 6.88886 4.73806C6.55996 4.95782 6.30362 5.27018 6.15224 5.63563C6.00087 6.00109 5.96126 6.40322 6.03843 6.79118C6.1156 7.17914 6.30608 7.53551 6.58579 7.81521C6.86549 8.09492 7.22186 8.2854 7.60982 8.36257C7.99778 8.43974 8.39992 8.40014 8.76537 8.24876C9.13082 8.09738 9.44318 7.84104 9.66294 7.51214C9.8827 7.18324 10 6.79656 10 6.401C9.9994 5.87075 9.7885 5.36239 9.41355 4.98745C9.03861 4.6125 8.53025 4.4016 8 4.401ZM8 7.601C7.76266 7.601 7.53066 7.53062 7.33332 7.39876C7.13598 7.26691 6.98217 7.07949 6.89135 6.86022C6.80052 6.64095 6.77676 6.39967 6.82306 6.16689C6.86936 5.93412 6.98365 5.7203 7.15147 5.55247C7.3193 5.38465 7.53312 5.27036 7.76589 5.22406C7.99867 5.17776 8.23995 5.20152 8.45922 5.29235C8.67849 5.38317 8.86591 5.53698 8.99776 5.73432C9.12962 5.93166 9.2 6.16366 9.2 6.401C9.19965 6.71915 9.07311 7.02417 8.84814 7.24914C8.62317 7.47411 8.31815 7.60065 8 7.601Z" fill="black"/>
<path d="M8.0001 1.59888C6.7343 1.59888 5.49693 1.97423 4.44445 2.67747C3.39198 3.38071 2.57167 4.38026 2.08727 5.5497C1.60287 6.71915 1.47613 8.00598 1.72307 9.24746C1.97002 10.4889 2.57956 11.6293 3.47462 12.5244C4.36967 13.4194 5.51004 14.029 6.75152 14.2759C7.993 14.5229 9.27983 14.3961 10.4493 13.9117C11.6187 13.4273 12.6183 12.607 13.3215 11.5545C14.0247 10.5021 14.4001 9.26468 14.4001 7.99888C14.3982 6.30209 13.7233 4.67535 12.5234 3.47554C11.3236 2.27572 9.69689 1.60082 8.0001 1.59888ZM4.81029 12.5978C4.86045 11.7858 5.21835 11.0236 5.81104 10.4664C6.40373 9.90915 7.18661 9.59893 8.0001 9.59893C8.81359 9.59893 9.59647 9.90915 10.1892 10.4664C10.7819 11.0236 11.1398 11.7858 11.1899 12.5978C10.2539 13.2495 9.14067 13.5989 8.0001 13.5989C6.85953 13.5989 5.74632 13.2495 4.81029 12.5978ZM11.9188 11.9942C11.7334 11.0919 11.2422 10.2811 10.5283 9.69897C9.81431 9.1168 8.92132 8.79887 8.0001 8.79887C7.07888 8.79887 6.18589 9.1168 5.47194 9.69897C4.75799 10.2811 4.26683 11.0919 4.08141 11.9942C3.28667 11.2157 2.74181 10.2182 2.51633 9.12876C2.29085 8.03934 2.39495 6.90746 2.81538 5.87746C3.2358 4.84745 3.95348 3.96601 4.87689 3.34555C5.80031 2.7251 6.8876 2.39374 8.0001 2.39374C9.1126 2.39374 10.1999 2.7251 11.1233 3.34555C12.0467 3.96601 12.7644 4.84745 13.1848 5.87746C13.6052 6.90746 13.7094 8.03934 13.4839 9.12876C13.2584 10.2182 12.7135 11.2157 11.9188 11.9942Z" fill="black"/>
</svg>
