<svg width="100" height="24" viewBox="0 0 100 24" fill="none" xmlns="http://www.w3.org/2000/svg">
<path d="M0 5.41211H8.45415V8.59955H3.61233V10.5244H7.17025V13.4776H3.61233V18.598H0V5.41211Z" fill="#903E97"/>
<path d="M15.8252 16.2417H11.3506L10.5645 18.5999H6.74268L11.794 5.41406H15.5205L20.58 18.5999H16.6195L15.8252 16.2417ZM14.8487 13.3207L13.6001 9.5895L13.592 9.57334L13.5756 9.5895L12.3271 13.3207H14.8487Z" fill="#903E97"/>
<path d="M21.4049 17.6823L21.3967 13.908C22.6453 14.8071 24.4324 15.7467 25.7598 15.7467C26.5024 15.7467 27.0437 15.3752 27.0437 14.6402C27.0437 13.8461 26.1026 13.6549 24.8975 13.2242C22.5147 12.3869 21.2417 11.4205 21.2417 9.06221C21.2417 6.55856 23.2845 5.06445 26.1352 5.06445C27.4354 5.06445 28.6649 5.38481 29.8781 5.98784V9.51987C28.9097 8.74185 27.313 8.21689 26.1869 8.21689C25.2104 8.21689 24.7915 8.63147 24.7915 9.18335C24.7915 9.8833 25.3681 10.0987 26.5459 10.4621C28.6921 11.1109 30.6642 12.1985 30.6642 14.6591C30.6642 17.4481 28.5779 18.9341 25.7081 18.9341C23.9101 18.9341 22.5501 18.3392 21.4076 17.6823H21.4049Z" fill="#903E97"/>
<path d="M52.2861 5.41211H55.8985V18.598H52.2861V5.41211Z" fill="#903E97"/>
<path d="M57.1963 11.9924C57.1963 8.11581 60.4251 5.06836 64.4645 5.06836C65.6069 5.06836 66.7167 5.39679 67.6225 5.88137L67.6307 9.36225C66.9507 8.8346 65.8245 8.34464 64.5433 8.34464C62.4489 8.34464 60.8086 9.95989 60.8086 11.9978C60.8086 14.0357 62.4489 15.6671 64.5433 15.6671C65.8272 15.6671 67.1003 15.1314 67.8592 14.3803L67.7803 18.0416C66.7847 18.5854 65.6069 18.9407 64.2985 18.9407C60.4251 18.9407 57.1963 15.8852 57.1963 11.9978V11.9924Z" fill="#903E97"/>
<path d="M81.6074 18.598H77.0185L72.9166 13.2273H72.786V18.598H69.1655V5.41211H72.786V10.904H72.8731L76.7465 5.41211H80.9518L76.1263 11.8624L81.6047 18.598H81.6074Z" fill="#903E97"/>
<path d="M82.1733 5.41211H90.7771V8.59955H85.7857V10.4732H89.8278V13.4103H85.7857V15.4132H90.8641V18.6007H82.1733V5.41211Z" fill="#903E97"/>
<path d="M93.9904 8.59955H91.5015V5.41211H100.005V8.59955H97.5945V18.598H93.9904V8.59955Z" fill="#903E97"/>
<path d="M39.3964 8.68332H37.2938C37.2067 8.68332 37.1333 8.61333 37.1333 8.52449V5.74086C37.1333 5.65472 37.204 5.58203 37.2938 5.58203H45.2474C45.3345 5.58203 45.4079 5.65203 45.4079 5.74086V8.52449C45.4079 8.61063 45.3372 8.68332 45.2474 8.68332H43.2209C43.1339 8.68332 43.0605 8.75331 43.0605 8.84215V18.2564C43.0605 18.3425 42.9897 18.4152 42.9 18.4152H39.712C39.6249 18.4152 39.5515 18.3452 39.5515 18.2564V8.84215C39.5515 8.75601 39.4808 8.68332 39.391 8.68332H39.3964Z" fill="white"/>
<path d="M37.2438 0.00314795C37.2438 0.00314795 37.4122 1.83841 35.2451 1.54565L30.7202 22.3536C30.7202 22.3536 32.3185 22.8762 32.0453 24H36.8434C36.8434 24 38.1271 22.1238 39.6841 24H44.5458C44.5458 24 44.5871 22.2057 46.6493 22.4166L51.6794 1.69045C51.6794 1.69045 50.5641 1.71249 50.3734 0H45.2576C45.2576 0 43.9643 1.65897 42.5122 0H37.2406L37.2438 0.00314795Z" fill="#02B056"/>
<path d="M38.5502 5.57031H46.7452C46.796 5.57031 46.831 5.61753 46.8183 5.66475L46.0684 8.64272C46.0588 8.67734 46.0302 8.69938 45.9953 8.69938H43.7614C43.7265 8.69938 43.6947 8.72141 43.6884 8.75604L41.2194 18.4014C41.2099 18.436 41.1813 18.458 41.1463 18.458H37.7876C37.7368 18.458 37.7018 18.4108 37.7145 18.3636L40.1136 8.80956C40.1263 8.76234 40.0882 8.71512 40.0405 8.71512H37.7908C37.74 8.71512 37.705 8.6679 37.7177 8.62068L38.4835 5.62698C38.493 5.59235 38.5216 5.57031 38.5566 5.57031H38.5502Z" fill="white"/>
</svg>
