<svg width="80" height="90" viewBox="0 0 80 90" fill="none" xmlns="http://www.w3.org/2000/svg">
<style>
@media (prefers-color-scheme: dark) 
{
.a { fill: #000000 }
.b { fill: #f0f0f0 }
}
</style>
<path  d="M33.7702 32.2602H26.0402C25.7202 32.2602 25.4502 32.0002 25.4502 31.6702V21.3302C25.4502 21.0102 25.7102 20.7402 26.0402 20.7402H55.2802C55.6002 20.7402 55.8702 21.0002 55.8702 21.3302V31.6702C55.8702 31.9902 55.6102 32.2602 55.2802 32.2602H47.8302C47.5102 32.2602 47.2402 32.5202 47.2402 32.8502V67.8202C47.2402 68.1402 46.9802 68.4102 46.6502 68.4102H34.9302C34.6102 68.4102 34.3402 68.1502 34.3402 67.8202V32.8502C34.3402 32.5302 34.0802 32.2602 33.7502 32.2602H33.7702Z" fill="#F3F1ED"/>
<path class="a" d="M25.6861 0.0115425C25.6861 0.0115425 26.2976 6.74082 18.4291 5.66737L2 81.9633C2 81.9633 7.80326 83.8793 6.81106 88H24.2324C24.2324 88 28.8935 81.1207 34.5467 88H52.1988C52.1988 88 52.3488 81.4208 59.8365 82.1941L78.1001 6.19832C78.1001 6.19832 74.0505 6.27912 73.3583 0H54.7832C54.7832 0 50.0875 6.0829 44.815 0H25.6746L25.6861 0.0115425Z" fill="#02B056"/>
<path class="b" d="M30.4276 20.417H60.1823C60.3669 20.417 60.4939 20.5901 60.4477 20.7633L57.7249 31.6825C57.6903 31.8094 57.5865 31.8902 57.4595 31.8902H49.3488C49.2219 31.8902 49.1065 31.971 49.0835 32.098L40.119 67.4642C40.0844 67.5912 39.9805 67.672 39.8536 67.672H27.6587C27.4741 67.672 27.3472 67.4988 27.3933 67.3257L36.104 32.2942C36.1501 32.1211 36.0117 31.9479 35.8386 31.9479H27.6702C27.4856 31.9479 27.3587 31.7748 27.4049 31.6017L30.1853 20.6248C30.22 20.4978 30.3238 20.417 30.4507 20.417H30.4276Z" fill="white"/>
</svg>
